<svg width="29" height="30" viewBox="0 0 29 30" fill="none" xmlns="http://www.w3.org/2000/svg">
<path d="M14.4999 28.8692C14.4999 28.8692 4.80566 16.2251 4.80566 10.8656C4.80566 9.59248 5.05641 8.33187 5.5436 7.15571C6.03078 5.97954 6.74486 4.91085 7.64505 4.01066C8.54525 3.11046 9.61394 2.39638 10.7901 1.9092C11.9663 1.42201 13.2269 1.17126 14.4999 1.17126C15.773 1.17126 17.0336 1.42201 18.2098 1.9092C19.386 2.39638 20.4546 3.11046 21.3548 4.01066C22.255 4.91085 22.9691 5.97954 23.4563 7.15571C23.9435 8.33187 24.1942 9.59248 24.1942 10.8656C24.1942 16.2251 14.4999 28.8692 14.4999 28.8692ZM14.4999 13.6353C15.2345 13.6353 15.9391 13.3435 16.4585 12.8241C16.9779 12.3047 17.2697 11.6001 17.2697 10.8656C17.2697 10.131 16.9779 9.42645 16.4585 8.90701C15.9391 8.38757 15.2345 8.09576 14.4999 8.09576C13.7654 8.09576 13.0608 8.38757 12.5414 8.90701C12.022 9.42645 11.7302 10.131 11.7302 10.8656C11.7302 11.6001 12.022 12.3047 12.5414 12.8241C13.0608 13.3435 13.7654 13.6353 14.4999 13.6353Z" fill="#210B26"/>
</svg>
