<svg width="30" height="31" viewBox="0 0 30 31" fill="none" xmlns="http://www.w3.org/2000/svg">
<path d="M16.25 24.493C16.25 20.3555 19.6125 16.993 23.75 16.993C25.125 16.993 26.4 17.368 27.5 18.0055V8.24304C27.5 7.58 27.2366 6.94412 26.7678 6.47527C26.2989 6.00643 25.663 5.74304 25 5.74304H5C3.6125 5.74304 2.5 6.85554 2.5 8.24304V23.243C2.5 23.9061 2.76339 24.542 3.23223 25.0108C3.70107 25.4796 4.33696 25.743 5 25.743H16.3625C16.3 25.3305 16.25 24.918 16.25 24.493ZM5 10.743V8.24304L15 14.493L25 8.24304V10.743L15 16.993L5 10.743ZM25 19.493V23.243H28.75V25.743H25V29.493H22.5V25.743H18.75V23.243H22.5V19.493H25Z" fill="#210B26"/>
</svg>
