<svg width="40" height="41" viewBox="0 0 40 41" fill="none" xmlns="http://www.w3.org/2000/svg">
<path d="M20.0001 15.0363C22.8672 15.0363 25.2071 17.3761 25.2071 20.2433C25.2071 23.1105 22.8672 25.4503 20.0001 25.4503C17.1329 25.4503 14.793 23.1105 14.793 20.2433C14.793 17.3761 17.1329 15.0363 20.0001 15.0363ZM4.38287 20.2433C4.38287 18.087 4.36334 15.9503 4.48443 13.798C4.60552 11.298 5.17584 9.07922 7.00396 7.2511C8.83599 5.41907 11.0508 4.85266 13.5508 4.73157C15.7071 4.61048 17.8438 4.63001 19.9962 4.63001C22.1524 4.63001 24.2891 4.61048 26.4415 4.73157C28.9415 4.85266 31.1602 5.42298 32.9883 7.2511C34.8204 9.08313 35.3868 11.298 35.5079 13.798C35.629 15.9542 35.6094 18.0909 35.6094 20.2433C35.6094 22.3956 35.629 24.5363 35.5079 26.6886C35.3868 29.1886 34.8165 31.4073 32.9883 33.2355C31.1563 35.0675 28.9415 35.6339 26.4415 35.755C24.2852 35.8761 22.1485 35.8566 19.9962 35.8566C17.8399 35.8566 15.7032 35.8761 13.5508 35.755C11.0508 35.6339 8.83209 35.0636 7.00396 33.2355C5.17193 31.4034 4.60552 29.1886 4.48443 26.6886C4.35943 24.5363 4.38287 22.3995 4.38287 20.2433ZM20.0001 28.255C24.4337 28.255 28.0118 24.6769 28.0118 20.2433C28.0118 15.8097 24.4337 12.2316 20.0001 12.2316C15.5665 12.2316 11.9883 15.8097 11.9883 20.2433C11.9883 24.6769 15.5665 28.255 20.0001 28.255ZM11.6602 13.7745C12.6954 13.7745 13.5313 12.9386 13.5313 11.9034C13.5313 10.8683 12.6954 10.0323 11.6602 10.0323C10.6251 10.0323 9.78912 10.8683 9.78912 11.9034C9.78881 12.1492 9.837 12.3927 9.93092 12.6198C10.0248 12.847 10.1627 13.0534 10.3365 13.2272C10.5103 13.401 10.7167 13.5388 10.9438 13.6327C11.171 13.7267 11.4144 13.7748 11.6602 13.7745Z" fill="#6F3891"/>
</svg>
