<svg width="34" height="24" viewBox="0 0 34 24" fill="none" xmlns="http://www.w3.org/2000/svg">
<path d="M13.6666 17.2433L22.3166 12.2433L13.6666 7.24327V17.2433ZM32.9333 4.19327C33.1499 4.9766 33.2999 6.0266 33.3999 7.35993C33.5166 8.69327 33.5666 9.84327 33.5666 10.8433L33.6666 12.2433C33.6666 15.8933 33.3999 18.5766 32.9333 20.2933C32.5166 21.7933 31.5499 22.7599 30.0499 23.1766C29.2666 23.3933 27.8333 23.5433 25.6333 23.6433C23.4666 23.7599 21.4833 23.8099 19.6499 23.8099L16.9999 23.9099C10.0166 23.9099 5.66659 23.6433 3.94992 23.1766C2.44992 22.7599 1.48325 21.7933 1.06659 20.2933C0.849919 19.5099 0.699919 18.4599 0.599919 17.1266C0.483252 15.7933 0.433252 14.6433 0.433252 13.6433L0.333252 12.2433C0.333252 8.59327 0.599919 5.90993 1.06659 4.19327C1.48325 2.69327 2.44992 1.7266 3.94992 1.30993C4.73325 1.09327 6.16659 0.943266 8.36659 0.843266C10.5333 0.726599 12.5166 0.676599 14.3499 0.676599L16.9999 0.576599C23.9833 0.576599 28.3333 0.843266 30.0499 1.30993C31.5499 1.7266 32.5166 2.69327 32.9333 4.19327Z" fill="#6F3891"/>
</svg>
