<svg width="40" height="33" viewBox="0 0 40 33" fill="none" xmlns="http://www.w3.org/2000/svg">
<path d="M12.565 32.7433C27.66 32.7433 35.9175 20.2358 35.9175 9.40831C35.9208 9.05664 35.9158 8.70498 35.9025 8.35331C37.5096 7.18892 38.897 5.74819 40 4.09831C38.4978 4.75899 36.9066 5.19532 35.2775 5.39331C36.994 4.36758 38.2795 2.75334 38.895 0.85081C37.2832 1.80761 35.518 2.47834 33.6775 2.83331C32.4405 1.51587 30.8035 0.643104 29.0202 0.350204C27.2369 0.0573031 25.4068 0.360614 23.8133 1.21315C22.2199 2.06569 20.952 3.41988 20.2061 5.06596C19.4602 6.71204 19.2779 8.55814 19.6875 10.3183C16.4242 10.1555 13.2316 9.30809 10.3171 7.83122C7.40253 6.35435 4.83118 4.28101 2.77 1.74581C1.72395 3.55366 1.40488 5.69177 1.87752 7.72627C2.35016 9.76076 3.57911 11.5392 5.315 12.7008C4.01352 12.6588 2.74048 12.3092 1.6 11.6808V11.7933C1.60318 13.6868 2.25955 15.5211 3.45831 16.9868C4.65707 18.4524 6.3248 19.4596 8.18 19.8383C7.47568 20.0324 6.74808 20.1292 6.0175 20.1258C5.5023 20.1312 4.98791 20.0834 4.4825 19.9833C5.00598 21.614 6.02694 23.0399 7.40209 24.0609C8.77724 25.0818 10.4375 25.6466 12.15 25.6758C9.24026 27.9582 5.64811 29.197 1.95 29.1933C1.29825 29.1982 0.646865 29.1606 0 29.0808C3.75355 31.4745 8.11316 32.7452 12.565 32.7433Z" fill="#6F3891"/>
</svg>
