<svg width="24" height="23" viewBox="0 0 24 23" fill="none" xmlns="http://www.w3.org/2000/svg">
<path d="M15.75 11.7433H18.25C18.25 10.0857 17.5915 8.49597 16.4194 7.32387C15.2473 6.15177 13.6576 5.49329 12 5.49329V7.99329C12.9946 7.99329 13.9484 8.38837 14.6517 9.09163C15.3549 9.7949 15.75 10.7487 15.75 11.7433ZM20.75 11.7433H23.25C23.25 5.49329 18.2125 0.493286 12 0.493286V2.99329C16.825 2.99329 20.75 6.90579 20.75 11.7433ZM22 16.1183C20.4375 16.1183 18.9375 15.8683 17.5375 15.4058C17.1 15.2683 16.6125 15.3683 16.2625 15.7183L13.5125 18.4683C9.96664 16.6599 7.08338 13.7766 5.275 10.2308L8.025 7.48079C8.375 7.13079 8.475 6.64329 8.3375 6.20579C7.86331 4.76586 7.62277 3.25928 7.625 1.74329C7.625 1.41177 7.4933 1.09382 7.25888 0.859403C7.02446 0.624982 6.70652 0.493286 6.375 0.493286H2C1.66848 0.493286 1.35054 0.624982 1.11612 0.859403C0.881696 1.09382 0.75 1.41177 0.75 1.74329C0.75 7.37914 2.98883 12.7842 6.97398 16.7693C10.9591 20.7545 16.3641 22.9933 22 22.9933C22.3315 22.9933 22.6495 22.8616 22.8839 22.6272C23.1183 22.3927 23.25 22.0748 23.25 21.7433V17.3683C23.25 17.0368 23.1183 16.7188 22.8839 16.4844C22.6495 16.25 22.3315 16.1183 22 16.1183Z" fill="#210B26"/>
</svg>
