<svg width="132" height="44" viewBox="0 0 132 44" fill="none" xmlns="http://www.w3.org/2000/svg">
<rect x="0.571106" y="0.894287" width="130.909" height="42.1938" rx="10.8189" fill="#0E0E0E"/>
<path d="M30.605 31.3225C29.5005 32.3931 28.2947 32.224 27.1339 31.7169C25.9055 31.1985 24.7785 31.176 23.4825 31.7169C21.8597 32.4156 21.0032 32.2128 20.034 31.3225C14.5344 25.6538 15.3458 17.0212 21.5892 16.7056C23.1106 16.7845 24.17 17.5396 25.0603 17.6072C26.3901 17.3367 27.6636 16.5591 29.0836 16.6606C30.7853 16.7958 32.07 17.472 32.9153 18.6891C29.3991 20.7965 30.2331 25.4284 33.4562 26.7244C32.8138 28.4149 31.9799 30.0941 30.5937 31.3337L30.605 31.3225ZM24.9476 16.638C24.7785 14.1249 26.8184 12.0512 29.1625 11.8484C29.4893 14.756 26.5253 16.9198 24.9476 16.638Z" fill="#FCFCFC"/>
<path d="M51.961 16.4675H50.0185V10.1729H52.0471C52.6577 10.1729 53.1802 10.2989 53.6146 10.5509C54.049 10.8009 54.382 11.1605 54.6135 11.6297C54.845 12.0969 54.9608 12.6563 54.9608 13.3079C54.9608 13.9636 54.844 14.5281 54.6104 15.0014C54.3768 15.4727 54.0367 15.8354 53.59 16.0895C53.1433 16.3415 52.6003 16.4675 51.961 16.4675ZM50.7808 15.7913H51.9118C52.4323 15.7913 52.8636 15.6909 53.2058 15.4901C53.548 15.2893 53.8031 15.0035 53.9711 14.6326C54.1391 14.2617 54.2232 13.8202 54.2232 13.3079C54.2232 12.7997 54.1402 12.3623 53.9742 11.9955C53.8082 11.6267 53.5603 11.3439 53.2304 11.1472C52.9005 10.9484 52.4897 10.8491 51.9979 10.8491H50.7808V15.7913ZM58.059 16.5659C57.6328 16.5659 57.2588 16.4645 56.9371 16.2616C56.6175 16.0587 56.3675 15.775 56.1872 15.4102C56.0089 15.0455 55.9198 14.6193 55.9198 14.1316C55.9198 13.6399 56.0089 13.2106 56.1872 12.8438C56.3675 12.477 56.6175 12.1922 56.9371 11.9894C57.2588 11.7865 57.6328 11.6851 58.059 11.6851C58.4852 11.6851 58.8581 11.7865 59.1777 11.9894C59.4994 12.1922 59.7494 12.477 59.9277 12.8438C60.108 13.2106 60.1982 13.6399 60.1982 14.1316C60.1982 14.6193 60.108 15.0455 59.9277 15.4102C59.7494 15.775 59.4994 16.0587 59.1777 16.2616C58.8581 16.4645 58.4852 16.5659 58.059 16.5659ZM58.059 15.9143C58.3827 15.9143 58.6491 15.8313 58.8581 15.6653C59.0671 15.4994 59.2218 15.2811 59.3222 15.0107C59.4226 14.7402 59.4728 14.4472 59.4728 14.1316C59.4728 13.8161 59.4226 13.522 59.3222 13.2495C59.2218 12.977 59.0671 12.7567 58.8581 12.5887C58.6491 12.4207 58.3827 12.3367 58.059 12.3367C57.7352 12.3367 57.4688 12.4207 57.2598 12.5887C57.0508 12.7567 56.8961 12.977 56.7957 13.2495C56.6953 13.522 56.6451 13.8161 56.6451 14.1316C56.6451 14.4472 56.6953 14.7402 56.7957 15.0107C56.8961 15.2811 57.0508 15.4994 57.2598 15.6653C57.4688 15.8313 57.7352 15.9143 58.059 15.9143ZM62.2144 16.4675L60.776 11.7465H61.5382L62.5587 15.361H62.6078L63.616 11.7465H64.3905L65.3863 15.3488H65.4355L66.4559 11.7465H67.2182L65.7797 16.4675H65.0667L64.034 12.8407H63.9602L62.9275 16.4675H62.2144ZM68.9025 13.6276V16.4675H68.1771V11.7465H68.8779V12.4842H68.9394C69.05 12.2445 69.218 12.0518 69.4434 11.9064C69.6688 11.7588 69.9598 11.6851 70.3163 11.6851C70.636 11.6851 70.9157 11.7506 71.1554 11.8818C71.3951 12.0109 71.5816 12.2076 71.7148 12.4719C71.848 12.7342 71.9146 13.0661 71.9146 13.4677V16.4675H71.1892V13.5169C71.1892 13.146 71.0929 12.8571 70.9003 12.6502C70.7077 12.4412 70.4434 12.3367 70.1073 12.3367C69.8758 12.3367 69.6688 12.3869 69.4865 12.4873C69.3061 12.5877 69.1637 12.7342 69.0592 12.9268C68.9547 13.1194 68.9025 13.353 68.9025 13.6276ZM73.9654 10.1729V16.4675H73.24V10.1729H73.9654ZM77.2119 16.5659C76.7857 16.5659 76.4117 16.4645 76.09 16.2616C75.7704 16.0587 75.5204 15.775 75.3401 15.4102C75.1618 15.0455 75.0727 14.6193 75.0727 14.1316C75.0727 13.6399 75.1618 13.2106 75.3401 12.8438C75.5204 12.477 75.7704 12.1922 76.09 11.9894C76.4117 11.7865 76.7857 11.6851 77.2119 11.6851C77.6381 11.6851 78.011 11.7865 78.3306 11.9894C78.6523 12.1922 78.9023 12.477 79.0806 12.8438C79.2609 13.2106 79.3511 13.6399 79.3511 14.1316C79.3511 14.6193 79.2609 15.0455 79.0806 15.4102C78.9023 15.775 78.6523 16.0587 78.3306 16.2616C78.011 16.4645 77.6381 16.5659 77.2119 16.5659ZM77.2119 15.9143C77.5356 15.9143 77.802 15.8313 78.011 15.6653C78.22 15.4994 78.3747 15.2811 78.4751 15.0107C78.5755 14.7402 78.6257 14.4472 78.6257 14.1316C78.6257 13.8161 78.5755 13.522 78.4751 13.2495C78.3747 12.977 78.22 12.7567 78.011 12.5887C77.802 12.4207 77.5356 12.3367 77.2119 12.3367C76.8881 12.3367 76.6217 12.4207 76.4127 12.5887C76.2037 12.7567 76.049 12.977 75.9486 13.2495C75.8482 13.522 75.798 13.8161 75.798 14.1316C75.798 14.4472 75.8482 14.7402 75.9486 15.0107C76.049 15.2811 76.2037 15.4994 76.4127 15.6653C76.6217 15.8313 76.8881 15.9143 77.2119 15.9143ZM81.8476 16.5782C81.5484 16.5782 81.2769 16.5218 81.0331 16.4091C80.7892 16.2944 80.5956 16.1294 80.4522 15.9143C80.3087 15.6971 80.237 15.4348 80.237 15.1275C80.237 14.857 80.2903 14.6377 80.3968 14.4697C80.5034 14.2996 80.6458 14.1665 80.8241 14.0702C81.0023 13.9738 81.199 13.9021 81.4142 13.855C81.6314 13.8058 81.8496 13.7669 82.0689 13.7382C82.3557 13.7013 82.5883 13.6737 82.7665 13.6552C82.9469 13.6347 83.078 13.6009 83.16 13.5538C83.244 13.5067 83.286 13.4247 83.286 13.3079V13.2833C83.286 12.9801 83.203 12.7444 83.037 12.5764C82.8731 12.4084 82.6241 12.3244 82.2901 12.3244C81.9439 12.3244 81.6724 12.4002 81.4757 12.5518C81.2789 12.7034 81.1406 12.8653 81.0607 13.0374L80.3722 12.7916C80.4952 12.5047 80.6591 12.2813 80.864 12.1215C81.071 11.9596 81.2964 11.8469 81.5402 11.7834C81.7861 11.7179 82.0279 11.6851 82.2656 11.6851C82.4172 11.6851 82.5914 11.7035 82.7881 11.7404C82.9868 11.7752 83.1784 11.848 83.3628 11.9586C83.5493 12.0693 83.704 12.2363 83.8269 12.4596C83.9499 12.683 84.0113 12.9821 84.0113 13.3571V16.4675H83.286V15.8282H83.2491C83.1999 15.9307 83.118 16.0403 83.0032 16.1571C82.8885 16.2739 82.7358 16.3733 82.5453 16.4552C82.3547 16.5372 82.1221 16.5782 81.8476 16.5782ZM81.9582 15.9266C82.2451 15.9266 82.4869 15.8702 82.6836 15.7575C82.8823 15.6448 83.0319 15.4994 83.1323 15.3211C83.2348 15.1428 83.286 14.9553 83.286 14.7586V14.0947C83.2552 14.1316 83.1876 14.1654 83.0831 14.1962C82.9807 14.2249 82.8618 14.2505 82.7266 14.273C82.5934 14.2935 82.4633 14.3119 82.3363 14.3283C82.2113 14.3427 82.1098 14.355 82.032 14.3652C81.8435 14.3898 81.6672 14.4298 81.5033 14.4851C81.3414 14.5384 81.2103 14.6193 81.1099 14.7279C81.0115 14.8344 80.9624 14.9799 80.9624 15.1643C80.9624 15.4164 81.0556 15.6069 81.2421 15.736C81.4306 15.8631 81.6693 15.9266 81.9582 15.9266ZM87.1179 16.5659C86.7245 16.5659 86.3772 16.4665 86.076 16.2677C85.7748 16.0669 85.5392 15.7842 85.3691 15.4194C85.199 15.0527 85.114 14.6193 85.114 14.1193C85.114 13.6235 85.199 13.1932 85.3691 12.8284C85.5392 12.4637 85.7758 12.182 86.0791 11.9832C86.3823 11.7844 86.7327 11.6851 87.1302 11.6851C87.4376 11.6851 87.6804 11.7363 87.8587 11.8387C88.039 11.9392 88.1763 12.0539 88.2705 12.183C88.3668 12.31 88.4416 12.4145 88.4949 12.4965H88.5564V10.1729H89.2817V16.4675H88.581V15.7422H88.4949C88.4416 15.8282 88.3658 15.9368 88.2675 16.068C88.1691 16.1971 88.0287 16.3128 87.8464 16.4153C87.664 16.5157 87.4212 16.5659 87.1179 16.5659ZM87.2163 15.9143C87.5073 15.9143 87.7531 15.8385 87.9539 15.6868C88.1548 15.5332 88.3074 15.3211 88.4119 15.0506C88.5164 14.7781 88.5687 14.4636 88.5687 14.107C88.5687 13.7546 88.5174 13.4462 88.415 13.1819C88.3125 12.9155 88.1609 12.7086 87.9601 12.561C87.7593 12.4115 87.5114 12.3367 87.2163 12.3367C86.9089 12.3367 86.6528 12.4156 86.4479 12.5733C86.245 12.7291 86.0924 12.9411 85.9899 13.2096C85.8895 13.4759 85.8393 13.7751 85.8393 14.107C85.8393 14.4431 85.8906 14.7484 85.993 15.023C86.0975 15.2955 86.2512 15.5127 86.4541 15.6746C86.659 15.8344 86.913 15.9143 87.2163 15.9143ZM95.0631 16.5659C94.6369 16.5659 94.2629 16.4645 93.9412 16.2616C93.6216 16.0587 93.3716 15.775 93.1913 15.4102C93.013 15.0455 92.9239 14.6193 92.9239 14.1316C92.9239 13.6399 93.013 13.2106 93.1913 12.8438C93.3716 12.477 93.6216 12.1922 93.9412 11.9894C94.2629 11.7865 94.6369 11.6851 95.0631 11.6851C95.4893 11.6851 95.8622 11.7865 96.1819 11.9894C96.5036 12.1922 96.7536 12.477 96.9318 12.8438C97.1121 13.2106 97.2023 13.6399 97.2023 14.1316C97.2023 14.6193 97.1121 15.0455 96.9318 15.4102C96.7536 15.775 96.5036 16.0587 96.1819 16.2616C95.8622 16.4645 95.4893 16.5659 95.0631 16.5659ZM95.0631 15.9143C95.3868 15.9143 95.6532 15.8313 95.8622 15.6653C96.0712 15.4994 96.2259 15.2811 96.3263 15.0107C96.4267 14.7402 96.4769 14.4472 96.4769 14.1316C96.4769 13.8161 96.4267 13.522 96.3263 13.2495C96.2259 12.977 96.0712 12.7567 95.8622 12.5887C95.6532 12.4207 95.3868 12.3367 95.0631 12.3367C94.7393 12.3367 94.473 12.4207 94.264 12.5887C94.055 12.7567 93.9003 12.977 93.7999 13.2495C93.6995 13.522 93.6493 13.8161 93.6493 14.1316C93.6493 14.4472 93.6995 14.7402 93.7999 15.0107C93.9003 15.2811 94.055 15.4994 94.264 15.6653C94.473 15.8313 94.7393 15.9143 95.0631 15.9143ZM99.0349 13.6276V16.4675H98.3095V11.7465H99.0103V12.4842H99.0718C99.1824 12.2445 99.3505 12.0518 99.5759 11.9064C99.8012 11.7588 100.092 11.6851 100.449 11.6851C100.768 11.6851 101.048 11.7506 101.288 11.8818C101.528 12.0109 101.714 12.2076 101.847 12.4719C101.98 12.7342 102.047 13.0661 102.047 13.4677V16.4675H101.322V13.5169C101.322 13.146 101.225 12.8571 101.033 12.6502C100.84 12.4412 100.576 12.3367 100.24 12.3367C100.008 12.3367 99.8012 12.3869 99.6189 12.4873C99.4386 12.5877 99.2962 12.7342 99.1917 12.9268C99.0872 13.1194 99.0349 13.353 99.0349 13.6276ZM107.86 11.7465V12.3613H105.413V11.7465H107.86ZM106.126 10.6155H106.852V15.1152C106.852 15.3201 106.881 15.4737 106.941 15.5762C107.002 15.6766 107.08 15.7442 107.174 15.7791C107.271 15.8118 107.372 15.8282 107.479 15.8282C107.559 15.8282 107.624 15.8241 107.675 15.8159C107.727 15.8057 107.768 15.7975 107.798 15.7913L107.946 16.4429C107.897 16.4614 107.828 16.4798 107.74 16.4983C107.652 16.5188 107.54 16.529 107.405 16.529C107.2 16.529 106.999 16.4849 106.803 16.3968C106.608 16.3087 106.446 16.1745 106.317 15.9942C106.19 15.8139 106.126 15.5864 106.126 15.3119V10.6155ZM109.778 13.6276V16.4675H109.052V10.1729H109.778V12.4842H109.839C109.95 12.2404 110.116 12.0467 110.337 11.9033C110.561 11.7578 110.858 11.6851 111.228 11.6851C111.55 11.6851 111.832 11.7496 112.074 11.8787C112.316 12.0057 112.503 12.2014 112.636 12.4658C112.771 12.728 112.839 13.062 112.839 13.4677V16.4675H112.114V13.5169C112.114 13.1419 112.016 12.852 111.822 12.6471C111.629 12.4401 111.362 12.3367 111.019 12.3367C110.782 12.3367 110.569 12.3869 110.38 12.4873C110.194 12.5877 110.046 12.7342 109.938 12.9268C109.831 13.1194 109.778 13.353 109.778 13.6276ZM116.145 16.5659C115.691 16.5659 115.298 16.4655 114.968 16.2647C114.64 16.0618 114.387 15.7791 114.209 15.4164C114.033 15.0516 113.945 14.6275 113.945 14.1439C113.945 13.6603 114.033 13.2341 114.209 12.8653C114.387 12.4944 114.635 12.2055 114.953 11.9986C115.273 11.7896 115.645 11.6851 116.072 11.6851C116.318 11.6851 116.56 11.726 116.8 11.808C117.04 11.89 117.258 12.0232 117.455 12.2076C117.651 12.3899 117.808 12.6317 117.925 12.9329C118.042 13.2341 118.1 13.605 118.1 14.0456V14.3529H114.461V13.7259H117.363C117.363 13.4595 117.309 13.2218 117.203 13.0128C117.098 12.8038 116.949 12.6389 116.754 12.518C116.561 12.3971 116.334 12.3367 116.072 12.3367C115.783 12.3367 115.533 12.4084 115.322 12.5518C115.113 12.6932 114.952 12.8776 114.839 13.1051C114.726 13.3325 114.67 13.5763 114.67 13.8366V14.2546C114.67 14.6111 114.732 14.9133 114.855 15.1613C114.98 15.4072 115.153 15.5946 115.374 15.7237C115.595 15.8508 115.852 15.9143 116.145 15.9143C116.336 15.9143 116.508 15.8877 116.662 15.8344C116.817 15.7791 116.952 15.6971 117.064 15.5885C117.177 15.4778 117.264 15.3406 117.326 15.1766L118.026 15.3733C117.953 15.611 117.829 15.82 117.655 16.0003C117.48 16.1786 117.265 16.3179 117.009 16.4184C116.753 16.5167 116.465 16.5659 116.145 16.5659ZM51.7044 32.4675H49.5652L52.8247 23.0255H55.3973L58.6522 32.4675H56.513L54.1479 25.1832H54.0741L51.7044 32.4675ZM51.5707 28.7562H56.6236V30.3145H51.5707V28.7562ZM59.7517 35.1231V25.386H61.6881V26.5755H61.7757C61.8617 26.385 61.9862 26.1913 62.1491 25.9946C62.3151 25.7948 62.5302 25.6289 62.7946 25.4967C63.062 25.3615 63.3939 25.2938 63.7904 25.2938C64.3067 25.2938 64.7831 25.4291 65.2196 25.6995C65.656 25.9669 66.0049 26.3711 66.2661 26.9121C66.5274 27.4499 66.658 28.1246 66.658 28.936C66.658 29.7259 66.5305 30.3929 66.2754 30.9369C66.0233 31.4778 65.6791 31.8882 65.2426 32.1679C64.8093 32.4445 64.3237 32.5828 63.7858 32.5828C63.4047 32.5828 63.0804 32.5198 62.813 32.3938C62.5487 32.2677 62.332 32.1095 62.1629 31.9189C61.9939 31.7253 61.8648 31.5301 61.7757 31.3334H61.7157V35.1231H59.7517ZM61.6742 28.9268C61.6742 29.3479 61.7326 29.7152 61.8494 30.0287C61.9662 30.3422 62.1353 30.5865 62.3566 30.7617C62.5779 30.9338 62.8468 31.0199 63.1634 31.0199C63.483 31.0199 63.7535 30.9323 63.9748 30.7571C64.1961 30.5788 64.3636 30.3329 64.4773 30.0194C64.5941 29.7029 64.6525 29.3386 64.6525 28.9268C64.6525 28.518 64.5957 28.1584 64.4819 27.848C64.3682 27.5375 64.2007 27.2947 63.9794 27.1195C63.7581 26.9443 63.4861 26.8567 63.1634 26.8567C62.8437 26.8567 62.5733 26.9413 62.352 27.1103C62.1337 27.2794 61.9662 27.5191 61.8494 27.8295C61.7326 28.14 61.6742 28.5057 61.6742 28.9268ZM67.9674 35.1231V25.386H69.9037V26.5755H69.9913C70.0774 26.385 70.2018 26.1913 70.3647 25.9946C70.5307 25.7948 70.7459 25.6289 71.0102 25.4967C71.2776 25.3615 71.6095 25.2938 72.006 25.2938C72.5224 25.2938 72.9988 25.4291 73.4352 25.6995C73.8717 25.9669 74.2205 26.3711 74.4818 26.9121C74.743 27.4499 74.8736 28.1246 74.8736 28.936C74.8736 29.7259 74.7461 30.3929 74.491 30.9369C74.239 31.4778 73.8947 31.8882 73.4583 32.1679C73.0249 32.4445 72.5393 32.5828 72.0014 32.5828C71.6203 32.5828 71.296 32.5198 71.0286 32.3938C70.7643 32.2677 70.5476 32.1095 70.3786 31.9189C70.2095 31.7253 70.0804 31.5301 69.9913 31.3334H69.9314V35.1231H67.9674ZM69.8899 28.9268C69.8899 29.3479 69.9483 29.7152 70.0651 30.0287C70.1819 30.3422 70.3509 30.5865 70.5722 30.7617C70.7935 30.9338 71.0624 31.0199 71.379 31.0199C71.6987 31.0199 71.9691 30.9323 72.1904 30.7571C72.4117 30.5788 72.5792 30.3329 72.693 30.0194C72.8098 29.7029 72.8682 29.3386 72.8682 28.9268C72.8682 28.518 72.8113 28.1584 72.6976 27.848C72.5838 27.5375 72.4163 27.2947 72.195 27.1195C71.9737 26.9443 71.7017 26.8567 71.379 26.8567C71.0594 26.8567 70.7889 26.9413 70.5676 27.1103C70.3494 27.2794 70.1819 27.5191 70.0651 27.8295C69.9483 28.14 69.8899 28.5057 69.8899 28.9268ZM84.3467 25.741C84.3099 25.3691 84.1516 25.0802 83.8719 24.8743C83.5922 24.6684 83.2126 24.5654 82.7331 24.5654C82.4073 24.5654 82.1322 24.6115 81.9079 24.7037C81.6835 24.7928 81.5114 24.9173 81.3915 25.0772C81.2747 25.237 81.2163 25.4183 81.2163 25.6212C81.2102 25.7902 81.2455 25.9377 81.3224 26.0638C81.4023 26.1898 81.5114 26.2989 81.6497 26.3911C81.788 26.4802 81.9478 26.5586 82.1292 26.6262C82.3105 26.6908 82.5041 26.7461 82.7101 26.7922L83.5584 26.9951C83.9702 27.0873 84.3483 27.2102 84.6925 27.3639C85.0368 27.5176 85.3349 27.7066 85.5869 27.931C85.839 28.1553 86.0341 28.4196 86.1724 28.7239C86.3138 29.0282 86.3861 29.3771 86.3891 29.7705C86.3861 30.3483 86.2385 30.8493 85.9465 31.2735C85.6576 31.6945 85.2396 32.0219 84.6925 32.2555C84.1485 32.486 83.4923 32.6012 82.7239 32.6012C81.9617 32.6012 81.2978 32.4844 80.7322 32.2508C80.1698 32.0173 79.7303 31.6715 79.4137 31.2135C79.1002 30.7525 78.9357 30.1823 78.9204 29.5031H80.8521C80.8736 29.8197 80.9643 30.084 81.1241 30.2961C81.287 30.5051 81.5037 30.6633 81.7742 30.7709C82.0477 30.8754 82.3566 30.9277 82.7009 30.9277C83.0389 30.9277 83.3325 30.8785 83.5814 30.7801C83.8335 30.6818 84.0286 30.545 84.1669 30.3698C84.3053 30.1946 84.3744 29.9933 84.3744 29.7659C84.3744 29.5538 84.3114 29.3755 84.1854 29.2311C84.0624 29.0866 83.8811 28.9637 83.6414 28.8622C83.4047 28.7608 83.1143 28.6686 82.77 28.5856L81.7419 28.3274C80.9459 28.1338 80.3173 27.8311 79.8563 27.4192C79.3952 27.0073 79.1663 26.4526 79.1693 25.7549C79.1663 25.1832 79.3184 24.6837 79.6258 24.2565C79.9362 23.8293 80.3619 23.4958 80.9028 23.2561C81.4438 23.0163 82.0585 22.8965 82.747 22.8965C83.4477 22.8965 84.0594 23.0163 84.5819 23.2561C85.1075 23.4958 85.5162 23.8293 85.8082 24.2565C86.1002 24.6837 86.2508 25.1786 86.26 25.741H84.3467ZM91.4617 25.386V26.8614H87.1971V25.386H91.4617ZM88.1653 23.6894H90.1293V30.2914C90.1293 30.4728 90.1569 30.6142 90.2123 30.7156C90.2676 30.814 90.3444 30.8831 90.4428 30.9231C90.5442 30.963 90.661 30.983 90.7932 30.983C90.8854 30.983 90.9776 30.9753 91.0698 30.9599C91.162 30.9415 91.2327 30.9277 91.2819 30.9185L91.5907 32.3799C91.4924 32.4107 91.3541 32.446 91.1758 32.486C90.9976 32.529 90.7809 32.5551 90.5258 32.5643C90.0524 32.5828 89.6375 32.5198 89.281 32.3753C88.9275 32.2309 88.6524 32.0065 88.4557 31.7022C88.259 31.3979 88.1622 31.0137 88.1653 30.5496V23.6894ZM95.8645 32.6058C95.1484 32.6058 94.5291 32.4537 94.0066 32.1494C93.4871 31.8421 93.086 31.4148 92.8033 30.8677C92.5205 30.3176 92.3791 29.6798 92.3791 28.9544C92.3791 28.2229 92.5205 27.5836 92.8033 27.0365C93.086 26.4864 93.4871 26.0592 94.0066 25.7549C94.5291 25.4475 95.1484 25.2938 95.8645 25.2938C96.5807 25.2938 97.1985 25.4475 97.7179 25.7549C98.2404 26.0592 98.643 26.4864 98.9258 27.0365C99.2086 27.5836 99.35 28.2229 99.35 28.9544C99.35 29.6798 99.2086 30.3176 98.9258 30.8677C98.643 31.4148 98.2404 31.8421 97.7179 32.1494C97.1985 32.4537 96.5807 32.6058 95.8645 32.6058ZM95.8738 31.0844C96.1996 31.0844 96.4716 30.9922 96.6898 30.8078C96.908 30.6203 97.0724 30.3652 97.1831 30.0425C97.2968 29.7198 97.3537 29.3525 97.3537 28.9406C97.3537 28.5288 97.2968 28.1615 97.1831 27.8387C97.0724 27.516 96.908 27.2609 96.6898 27.0734C96.4716 26.8859 96.1996 26.7922 95.8738 26.7922C95.5449 26.7922 95.2683 26.8859 95.0439 27.0734C94.8226 27.2609 94.6551 27.516 94.5414 27.8387C94.4307 28.1615 94.3754 28.5288 94.3754 28.9406C94.3754 29.3525 94.4307 29.7198 94.5414 30.0425C94.6551 30.3652 94.8226 30.6203 95.0439 30.8078C95.2683 30.9922 95.5449 31.0844 95.8738 31.0844ZM100.627 32.4675V25.386H102.531V26.6216H102.605C102.734 26.1821 102.951 25.8502 103.255 25.6258C103.559 25.3983 103.91 25.2846 104.306 25.2846C104.404 25.2846 104.51 25.2908 104.624 25.3031C104.738 25.3154 104.838 25.3323 104.924 25.3538V27.0965C104.832 27.0688 104.704 27.0442 104.541 27.0227C104.378 27.0012 104.229 26.9904 104.094 26.9904C103.805 26.9904 103.547 27.0535 103.319 27.1795C103.095 27.3024 102.917 27.4745 102.785 27.6958C102.656 27.9171 102.591 28.1722 102.591 28.4611V32.4675H100.627ZM108.837 32.6058C108.108 32.6058 107.481 32.4583 106.956 32.1632C106.433 31.8651 106.031 31.444 105.748 30.9C105.465 30.3529 105.324 29.7059 105.324 28.9591C105.324 28.2306 105.465 27.5913 105.748 27.0412C106.031 26.491 106.429 26.0622 106.942 25.7549C107.458 25.4475 108.064 25.2938 108.759 25.2938C109.226 25.2938 109.661 25.3691 110.063 25.5197C110.469 25.6673 110.822 25.8901 111.124 26.1882C111.428 26.4864 111.665 26.8614 111.834 27.3132C112.003 27.7619 112.087 28.2875 112.087 28.8899V29.4293H106.108V28.2122H110.238C110.238 27.9294 110.177 27.6789 110.054 27.4607C109.931 27.2425 109.76 27.0719 109.542 26.949C109.327 26.8229 109.077 26.7599 108.791 26.7599C108.493 26.7599 108.228 26.8291 107.998 26.9674C107.77 27.1026 107.592 27.2855 107.463 27.516C107.334 27.7435 107.268 27.997 107.265 28.2767V29.4339C107.265 29.7843 107.329 30.0871 107.458 30.3422C107.591 30.5973 107.777 30.794 108.016 30.9323C108.256 31.0706 108.54 31.1398 108.869 31.1398C109.087 31.1398 109.287 31.109 109.468 31.0475C109.65 30.9861 109.805 30.8939 109.934 30.7709C110.063 30.648 110.162 30.4974 110.229 30.3191L112.046 30.439C111.953 30.8754 111.764 31.2565 111.479 31.5823C111.196 31.9051 110.83 32.1571 110.381 32.3384C109.936 32.5167 109.421 32.6058 108.837 32.6058Z" fill="white"/>
</svg>
