<svg width="25" height="25" viewBox="0 0 25 25" fill="none" xmlns="http://www.w3.org/2000/svg">
<path d="M12.5 2.34375C10.4913 2.34375 8.52768 2.9394 6.85749 4.05539C5.18731 5.17137 3.88556 6.75756 3.11685 8.61337C2.34815 10.4692 2.14702 12.5113 2.5389 14.4814C2.93079 16.4515 3.89807 18.2612 5.31845 19.6816C6.73883 21.1019 8.5485 22.0692 10.5186 22.4611C12.4887 22.853 14.5308 22.6519 16.3866 21.8832C18.2424 21.1145 19.8286 19.8127 20.9446 18.1425C22.0606 16.4723 22.6563 14.5087 22.6563 12.5C22.6534 9.80727 21.5825 7.22564 19.6784 5.32159C17.7744 3.41754 15.1927 2.34659 12.5 2.34375ZM12.5 21.0938C10.8003 21.0938 9.13881 20.5897 7.72557 19.6454C6.31234 18.7011 5.21086 17.359 4.56041 15.7887C3.90997 14.2184 3.73979 12.4905 4.07138 10.8234C4.40297 9.15642 5.22145 7.62516 6.42331 6.4233C7.62516 5.22144 9.15642 4.40297 10.8234 4.07138C12.4905 3.73978 14.2184 3.90997 15.7887 4.56041C17.359 5.21085 18.7012 6.31233 19.6454 7.72557C20.5897 9.1388 21.0938 10.8003 21.0938 12.5C21.0912 14.7784 20.1849 16.9628 18.5739 18.5738C16.9628 20.1849 14.7784 21.0912 12.5 21.0938ZM9.37501 12.5C9.37501 13.1559 9.58137 13.7951 9.96487 14.3272C10.3484 14.8593 10.8896 15.2572 11.5118 15.4646C12.134 15.672 12.8057 15.6784 13.4318 15.4829C14.0578 15.2873 14.6065 14.8997 15 14.375C15.1245 14.2092 15.3097 14.0997 15.5149 14.0705C15.7201 14.0413 15.9285 14.0948 16.0942 14.2192C16.26 14.3437 16.3695 14.5289 16.3987 14.7341C16.428 14.9393 16.3745 15.1477 16.25 15.3135C15.6596 16.1003 14.8366 16.6814 13.8975 16.9746C12.9585 17.2677 11.951 17.258 11.0178 16.9468C10.0846 16.6356 9.273 16.0387 8.69786 15.2406C8.12272 14.4425 7.81324 13.4837 7.81324 12.5C7.81324 11.5163 8.12272 10.5575 8.69786 9.75942C9.273 8.96135 10.0846 8.36444 11.0178 8.05324C11.951 7.74204 12.9585 7.73232 13.8975 8.02545C14.8366 8.31858 15.6596 8.8997 16.25 9.68652C16.3116 9.7686 16.3565 9.86201 16.382 9.96142C16.4075 10.0608 16.4132 10.1643 16.3987 10.2659C16.3843 10.3675 16.3499 10.4653 16.2977 10.5536C16.2455 10.642 16.1763 10.7191 16.0942 10.7808C16.0122 10.8424 15.9188 10.8872 15.8193 10.9128C15.7199 10.9383 15.6165 10.944 15.5149 10.9295C15.4133 10.915 15.3155 10.8807 15.2271 10.8285C15.1388 10.7762 15.0616 10.7071 15 10.625C14.6065 10.1003 14.0578 9.71271 13.4318 9.51715C12.8057 9.32158 12.134 9.32796 11.5118 9.53537C10.8896 9.74277 10.3484 10.1407 9.96487 10.6728C9.58137 11.2049 9.37501 11.8441 9.37501 12.5Z" fill="#FCFCFC"/>
</svg>
