<svg width="132" height="43" viewBox="0 0 132 43" fill="none" xmlns="http://www.w3.org/2000/svg">
<rect x="0.571106" y="0.291016" width="130.909" height="42.1938" rx="10.8189" fill="#0E0E0E"/>
<path d="M10.7417 9.70914C10.4692 9.99758 10.308 10.4454 10.308 11.0257V31.7507C10.308 32.3314 10.4692 32.7788 10.7417 33.0672L10.8111 33.1347L22.4208 21.5251V21.3882V21.2512L10.8111 9.64111L10.7417 9.70914Z" fill="url(#paint0_linear_614_818)"/>
<path d="M26.2905 25.3971L22.4208 21.5256V21.3887V21.2517L26.2913 17.3811L26.3786 17.4309L30.9636 20.0361C32.2733 20.7802 32.2733 21.9976 30.9636 22.7422L26.3786 25.3474L26.2905 25.3971Z" fill="url(#paint1_linear_614_818)"/>
<path d="M26.3787 25.3462L22.4208 21.3879L10.7418 33.0669C11.1736 33.5239 11.8861 33.5805 12.6892 33.1244L26.3787 25.3462Z" fill="url(#paint2_linear_614_818)"/>
<path d="M26.3787 17.4297L12.6892 9.65141C11.8861 9.19533 11.1736 9.25192 10.7418 9.70893L22.4208 21.388L26.3787 17.4297Z" fill="url(#paint3_linear_614_818)"/>
<path d="M47.8302 11.5367C47.7626 11.3297 47.6734 11.1443 47.5628 10.9804C47.4542 10.8144 47.3241 10.673 47.1724 10.5562C47.0229 10.4394 46.8528 10.3503 46.6622 10.2888C46.4717 10.2273 46.2627 10.1966 46.0352 10.1966C45.6623 10.1966 45.3232 10.2929 45.0179 10.4855C44.7126 10.6781 44.4698 10.9619 44.2894 11.3369C44.1091 11.7119 44.019 12.1719 44.019 12.7169C44.019 13.262 44.1101 13.722 44.2925 14.097C44.4749 14.4719 44.7218 14.7557 45.0332 14.9483C45.3447 15.1409 45.6951 15.2373 46.0844 15.2373C46.445 15.2373 46.7626 15.1604 47.0372 15.0067C47.3138 14.851 47.529 14.6318 47.6827 14.349C47.8384 14.0642 47.9162 13.7292 47.9162 13.3439L48.1498 13.3931H46.2565V12.7169H48.6539V13.3931C48.6539 13.9115 48.5432 14.3623 48.322 14.7455C48.1027 15.1287 47.7994 15.4258 47.4122 15.6368C47.027 15.8458 46.5844 15.9503 46.0844 15.9503C45.5271 15.9503 45.0373 15.8192 44.6152 15.5569C44.1952 15.2946 43.8673 14.9217 43.6317 14.4381C43.3981 13.9546 43.2813 13.3808 43.2813 12.7169C43.2813 12.219 43.3479 11.7713 43.4811 11.3738C43.6163 10.9742 43.8069 10.6341 44.0528 10.3534C44.2987 10.0726 44.5896 9.8575 44.9257 9.70792C45.2617 9.55834 45.6316 9.48355 46.0352 9.48355C46.3672 9.48355 46.6766 9.53375 46.9634 9.63415C47.2524 9.7325 47.5095 9.87286 47.7349 10.0552C47.9623 10.2355 48.1519 10.4517 48.3035 10.7037C48.4551 10.9537 48.5596 11.2314 48.617 11.5367H47.8302ZM49.9594 15.8643V9.56961H53.7583V10.2458H50.7216V12.3727H53.5616V13.0489H50.7216V15.1881H53.8075V15.8643H49.9594ZM54.788 10.2458V9.56961H59.5089V10.2458H57.5296V15.8643H56.7673V10.2458H54.788ZM63.8819 9.56961V15.8643H63.1196V9.56961H63.8819ZM65.0659 10.2458V9.56961H69.7869V10.2458H67.8076V15.8643H67.0453V10.2458H65.0659ZM78.7087 12.7169C78.7087 13.3808 78.5888 13.9546 78.3491 14.4381C78.1094 14.9217 77.7805 15.2946 77.3625 15.5569C76.9445 15.8192 76.4671 15.9503 75.9302 15.9503C75.3934 15.9503 74.9159 15.8192 74.4979 15.5569C74.0799 15.2946 73.7511 14.9217 73.5113 14.4381C73.2716 13.9546 73.1517 13.3808 73.1517 12.7169C73.1517 12.053 73.2716 11.4793 73.5113 10.9957C73.7511 10.5122 74.0799 10.1392 74.4979 9.87696C74.9159 9.61468 75.3934 9.48355 75.9302 9.48355C76.4671 9.48355 76.9445 9.61468 77.3625 9.87696C77.7805 10.1392 78.1094 10.5122 78.3491 10.9957C78.5888 11.4793 78.7087 12.053 78.7087 12.7169ZM77.9711 12.7169C77.9711 12.1719 77.8799 11.7119 77.6975 11.3369C77.5172 10.9619 77.2723 10.6781 76.9629 10.4855C76.6556 10.2929 76.3113 10.1966 75.9302 10.1966C75.5491 10.1966 75.2038 10.2929 74.8944 10.4855C74.5871 10.6781 74.3422 10.9619 74.1598 11.3369C73.9795 11.7119 73.8894 12.1719 73.8894 12.7169C73.8894 13.262 73.9795 13.722 74.1598 14.097C74.3422 14.4719 74.5871 14.7557 74.8944 14.9483C75.2038 15.1409 75.5491 15.2373 75.9302 15.2373C76.3113 15.2373 76.6556 15.1409 76.9629 14.9483C77.2723 14.7557 77.5172 14.4719 77.6975 14.097C77.8799 13.722 77.9711 13.262 77.9711 12.7169ZM84.9818 9.56961V15.8643H84.2442L80.8141 10.922H80.7526V15.8643H79.9904V9.56961H80.728L84.1704 14.5242H84.2319V9.56961H84.9818ZM49.8464 25.4743C49.7819 25.25 49.6912 25.0517 49.5744 24.8796C49.4576 24.7044 49.3147 24.5569 49.1457 24.437C48.9797 24.3141 48.7891 24.2203 48.574 24.1558C48.3619 24.0912 48.1268 24.0589 47.8686 24.0589C47.3861 24.0589 46.9619 24.1788 46.5961 24.4186C46.2335 24.6583 45.9507 25.0071 45.7478 25.4651C45.545 25.92 45.4436 26.4763 45.4436 27.134C45.4436 27.7918 45.5435 28.3512 45.7432 28.8122C45.943 29.2732 46.2258 29.6252 46.5915 29.868C46.9573 30.1077 47.3891 30.2276 47.887 30.2276C48.3389 30.2276 48.7246 30.1477 49.0442 29.9878C49.367 29.825 49.6128 29.596 49.7819 29.3009C49.954 29.0058 50.0401 28.657 50.0401 28.2544L50.4458 28.3143H48.0115V26.8113H51.9626V28.0008C51.9626 28.8307 51.7874 29.5437 51.437 30.14C51.0866 30.7332 50.6041 31.1911 49.9894 31.5139C49.3746 31.8335 48.6708 31.9933 47.8778 31.9933C46.9926 31.9933 46.215 31.7982 45.545 31.4078C44.875 31.0144 44.3524 30.4566 43.9775 29.7343C43.6056 29.0089 43.4196 28.1483 43.4196 27.1525C43.4196 26.3872 43.5303 25.7048 43.7516 25.1055C43.9759 24.5031 44.2894 23.9929 44.6921 23.5749C45.0947 23.1569 45.5634 22.8387 46.0982 22.6205C46.633 22.4023 47.2124 22.2932 47.8363 22.2932C48.3711 22.2932 48.869 22.3716 49.3301 22.5283C49.7911 22.682 50.1999 22.9002 50.5564 23.183C50.916 23.4658 51.2096 23.8023 51.437 24.1926C51.6644 24.5799 51.8104 25.0071 51.875 25.4743H49.8464ZM56.6248 32.0026C55.9087 32.0026 55.2893 31.8504 54.7668 31.5461C54.2474 31.2388 53.8463 30.8116 53.5635 30.2645C53.2808 29.7143 53.1394 29.0765 53.1394 28.3512C53.1394 27.6197 53.2808 26.9804 53.5635 26.4333C53.8463 25.8831 54.2474 25.4559 54.7668 25.1516C55.2893 24.8442 55.9087 24.6906 56.6248 24.6906C57.3409 24.6906 57.9587 24.8442 58.4781 25.1516C59.0007 25.4559 59.4033 25.8831 59.6861 26.4333C59.9688 26.9804 60.1102 27.6197 60.1102 28.3512C60.1102 29.0765 59.9688 29.7143 59.6861 30.2645C59.4033 30.8116 59.0007 31.2388 58.4781 31.5461C57.9587 31.8504 57.3409 32.0026 56.6248 32.0026ZM56.634 30.4812C56.9598 30.4812 57.2318 30.3889 57.45 30.2045C57.6683 30.017 57.8327 29.7619 57.9434 29.4392C58.0571 29.1165 58.1139 28.7492 58.1139 28.3373C58.1139 27.9255 58.0571 27.5582 57.9434 27.2355C57.8327 26.9128 57.6683 26.6576 57.45 26.4702C57.2318 26.2827 56.9598 26.1889 56.634 26.1889C56.3051 26.1889 56.0285 26.2827 55.8042 26.4702C55.5829 26.6576 55.4153 26.9128 55.3016 27.2355C55.191 27.5582 55.1357 27.9255 55.1357 28.3373C55.1357 28.7492 55.191 29.1165 55.3016 29.4392C55.4153 29.7619 55.5829 30.017 55.8042 30.2045C56.0285 30.3889 56.3051 30.4812 56.634 30.4812ZM64.5869 32.0026C63.8707 32.0026 63.2514 31.8504 62.7289 31.5461C62.2095 31.2388 61.8084 30.8116 61.5256 30.2645C61.2428 29.7143 61.1014 29.0765 61.1014 28.3512C61.1014 27.6197 61.2428 26.9804 61.5256 26.4333C61.8084 25.8831 62.2095 25.4559 62.7289 25.1516C63.2514 24.8442 63.8707 24.6906 64.5869 24.6906C65.303 24.6906 65.9208 24.8442 66.4402 25.1516C66.9627 25.4559 67.3654 25.8831 67.6481 26.4333C67.9309 26.9804 68.0723 27.6197 68.0723 28.3512C68.0723 29.0765 67.9309 29.7143 67.6481 30.2645C67.3654 30.8116 66.9627 31.2388 66.4402 31.5461C65.9208 31.8504 65.303 32.0026 64.5869 32.0026ZM64.5961 30.4812C64.9219 30.4812 65.1939 30.3889 65.4121 30.2045C65.6303 30.017 65.7948 29.7619 65.9054 29.4392C66.0191 29.1165 66.076 28.7492 66.076 28.3373C66.076 27.9255 66.0191 27.5582 65.9054 27.2355C65.7948 26.9128 65.6303 26.6576 65.4121 26.4702C65.1939 26.2827 64.9219 26.1889 64.5961 26.1889C64.2672 26.1889 63.9906 26.2827 63.7662 26.4702C63.5449 26.6576 63.3774 26.9128 63.2637 27.2355C63.153 27.5582 63.0977 27.9255 63.0977 28.3373C63.0977 28.7492 63.153 29.1165 63.2637 29.4392C63.3774 29.7619 63.5449 30.017 63.7662 30.2045C63.9906 30.3889 64.2672 30.4812 64.5961 30.4812ZM72.5397 34.6673C71.9035 34.6673 71.3579 34.5797 70.903 34.4046C70.4512 34.2324 70.0916 33.9973 69.8242 33.6992C69.5568 33.401 69.3831 33.066 69.3032 32.6941L71.1197 32.4498C71.175 32.5912 71.2626 32.7233 71.3825 32.8463C71.5024 32.9692 71.6607 33.0676 71.8574 33.1413C72.0571 33.2182 72.3 33.2566 72.5858 33.2566C73.013 33.2566 73.3649 33.1521 73.6416 32.9431C73.9213 32.7371 74.0611 32.3914 74.0611 31.9058V30.6102H73.9781C73.8921 30.807 73.763 30.9929 73.5908 31.1681C73.4187 31.3433 73.1974 31.4862 72.927 31.5969C72.6565 31.7075 72.3338 31.7628 71.9588 31.7628C71.4271 31.7628 70.943 31.6399 70.5065 31.394C70.0732 31.145 69.7274 30.7655 69.4692 30.2552C69.2141 29.742 69.0865 29.0934 69.0865 28.3097C69.0865 27.5075 69.2172 26.8374 69.4784 26.2996C69.7397 25.7617 70.087 25.3591 70.5204 25.0917C70.9568 24.8243 71.4347 24.6906 71.9542 24.6906C72.3507 24.6906 72.6826 24.7582 72.95 24.8934C73.2174 25.0256 73.4326 25.1916 73.5955 25.3913C73.7614 25.588 73.889 25.7817 73.9781 25.9722H74.0519V24.7828H76.0021V31.9334C76.0021 32.5358 75.8545 33.0399 75.5595 33.4456C75.2644 33.8513 74.8556 34.1556 74.3331 34.3585C73.8137 34.5644 73.2159 34.6673 72.5397 34.6673ZM72.5812 30.2875C72.8978 30.2875 73.1652 30.2091 73.3834 30.0524C73.6047 29.8926 73.7737 29.6651 73.8905 29.3701C74.0104 29.0719 74.0703 28.7154 74.0703 28.3005C74.0703 27.8855 74.0119 27.5259 73.8951 27.2216C73.7783 26.9143 73.6093 26.6761 73.388 26.507C73.1667 26.338 72.8978 26.2535 72.5812 26.2535C72.2585 26.2535 71.9865 26.3411 71.7652 26.5163C71.5439 26.6884 71.3763 26.9281 71.2626 27.2355C71.1489 27.5428 71.092 27.8978 71.092 28.3005C71.092 28.7092 71.1489 29.0627 71.2626 29.3608C71.3794 29.6559 71.5469 29.8849 71.7652 30.0478C71.9865 30.2076 72.2585 30.2875 72.5812 30.2875ZM79.529 22.4223V31.8643H77.565V22.4223H79.529ZM84.3295 32.0026C83.6011 32.0026 82.974 31.855 82.4485 31.56C81.926 31.2618 81.5233 30.8408 81.2406 30.2967C80.9578 29.7496 80.8164 29.1027 80.8164 28.3558C80.8164 27.6274 80.9578 26.9881 81.2406 26.4379C81.5233 25.8877 81.9214 25.459 82.4346 25.1516C82.951 24.8442 83.5565 24.6906 84.2511 24.6906C84.7183 24.6906 85.1532 24.7659 85.5558 24.9165C85.9615 25.064 86.315 25.2868 86.6162 25.585C86.9205 25.8831 87.1572 26.2581 87.3262 26.7099C87.4953 27.1586 87.5798 27.6842 87.5798 28.2866V28.826H81.6002V27.6089H85.731C85.731 27.3261 85.6696 27.0756 85.5466 26.8574C85.4237 26.6392 85.2531 26.4686 85.0349 26.3457C84.8197 26.2197 84.5692 26.1567 84.2834 26.1567C83.9852 26.1567 83.7209 26.2258 83.4904 26.3641C83.263 26.4994 83.0847 26.6822 82.9556 26.9128C82.8265 27.1402 82.7604 27.3938 82.7574 27.6735V28.8307C82.7574 29.181 82.8219 29.4838 82.951 29.7389C83.0832 29.994 83.2691 30.1907 83.5088 30.329C83.7486 30.4673 84.0329 30.5365 84.3618 30.5365C84.58 30.5365 84.7798 30.5057 84.9611 30.4443C85.1424 30.3828 85.2977 30.2906 85.4267 30.1677C85.5558 30.0447 85.6542 29.8941 85.7218 29.7158L87.5383 29.8357C87.4461 30.2722 87.2571 30.6533 86.9712 30.9791C86.6884 31.3018 86.3227 31.5538 85.874 31.7352C85.4283 31.9134 84.9135 32.0026 84.3295 32.0026ZM91.9031 31.8643V22.4223H95.6283C96.3444 22.4223 96.9545 22.5591 97.4586 22.8326C97.9627 23.1031 98.3468 23.4796 98.6112 23.9621C98.8786 24.4416 99.0123 24.9948 99.0123 25.6219C99.0123 26.2489 98.877 26.8021 98.6066 27.2816C98.3361 27.7611 97.9442 28.1345 97.4309 28.4019C96.9207 28.6693 96.3029 28.803 95.5776 28.803H93.2032V27.2032H95.2548C95.639 27.2032 95.9556 27.1371 96.2046 27.005C96.4566 26.8697 96.6441 26.6838 96.767 26.4471C96.8931 26.2074 96.9561 25.9323 96.9561 25.6219C96.9561 25.3084 96.8931 25.0348 96.767 24.8012C96.6441 24.5646 96.4566 24.3817 96.2046 24.2526C95.9525 24.1204 95.6329 24.0543 95.2456 24.0543H93.8994V31.8643H91.9031ZM102.236 22.4223V31.8643H100.272V22.4223H102.236ZM105.829 31.998C105.377 31.998 104.974 31.9196 104.621 31.7628C104.267 31.603 103.988 31.3679 103.782 31.0574C103.579 30.7439 103.477 30.3536 103.477 29.8864C103.477 29.493 103.55 29.1626 103.694 28.8952C103.839 28.6278 104.035 28.4126 104.284 28.2498C104.533 28.0869 104.816 27.9639 105.132 27.8809C105.452 27.7979 105.787 27.7395 106.138 27.7057C106.549 27.6627 106.881 27.6227 107.133 27.5859C107.385 27.5459 107.568 27.4875 107.682 27.4107C107.796 27.3338 107.853 27.2201 107.853 27.0695V27.0418C107.853 26.7499 107.76 26.5239 107.576 26.3641C107.395 26.2043 107.136 26.1244 106.801 26.1244C106.448 26.1244 106.167 26.2028 105.958 26.3595C105.749 26.5132 105.61 26.7068 105.543 26.9404L103.726 26.7929C103.819 26.3626 104 25.9907 104.27 25.6772C104.541 25.3606 104.89 25.1178 105.317 24.9487C105.747 24.7766 106.245 24.6906 106.811 24.6906C107.204 24.6906 107.581 24.7367 107.94 24.8289C108.303 24.9211 108.624 25.064 108.904 25.2576C109.187 25.4513 109.409 25.7002 109.572 26.0045C109.735 26.3057 109.817 26.6669 109.817 27.0879V31.8643H107.954V30.8823H107.899C107.785 31.1036 107.633 31.2987 107.442 31.4678C107.252 31.6337 107.023 31.7644 106.755 31.8596C106.488 31.9519 106.179 31.998 105.829 31.998ZM106.391 30.6425C106.68 30.6425 106.935 30.5857 107.156 30.4719C107.378 30.3551 107.551 30.1984 107.677 30.0017C107.803 29.805 107.866 29.5821 107.866 29.3332V28.5817C107.805 28.6217 107.72 28.6585 107.613 28.6923C107.508 28.7231 107.39 28.7523 107.258 28.7799C107.126 28.8045 106.994 28.8276 106.861 28.8491C106.729 28.8675 106.609 28.8844 106.502 28.8998C106.271 28.9336 106.07 28.9874 105.898 29.0612C105.726 29.1349 105.592 29.2348 105.497 29.3608C105.401 29.4838 105.354 29.6375 105.354 29.8219C105.354 30.0893 105.451 30.2937 105.644 30.4351C105.841 30.5734 106.09 30.6425 106.391 30.6425ZM112.299 34.5198C112.05 34.5198 111.817 34.4998 111.598 34.4599C111.383 34.423 111.205 34.3754 111.064 34.317L111.506 32.8509C111.737 32.9216 111.944 32.96 112.129 32.9661C112.316 32.9723 112.478 32.9292 112.613 32.837C112.751 32.7448 112.863 32.5881 112.949 32.3668L113.065 32.0671L110.524 24.7828H112.59L114.056 29.9832H114.13L115.609 24.7828H117.689L114.936 32.6296C114.804 33.0107 114.624 33.3426 114.397 33.6254C114.173 33.9112 113.888 34.131 113.544 34.2847C113.2 34.4414 112.785 34.5198 112.299 34.5198Z" fill="white"/>
<defs>
<linearGradient id="paint0_linear_614_818" x1="21.3912" y1="10.8072" x2="5.66445" y2="26.5339" gradientUnits="userSpaceOnUse">
<stop stop-color="#00A0FF"/>
<stop offset="0.0066" stop-color="#00A2FF"/>
<stop offset="0.2601" stop-color="#00BEFF"/>
<stop offset="0.5122" stop-color="#00D2FF"/>
<stop offset="0.7604" stop-color="#00DFFF"/>
<stop offset="1" stop-color="#00E3FF"/>
</linearGradient>
<linearGradient id="paint1_linear_614_818" x1="32.6689" y1="21.3891" x2="9.99399" y2="21.3891" gradientUnits="userSpaceOnUse">
<stop stop-color="#FFE000"/>
<stop offset="0.4087" stop-color="#FFBD00"/>
<stop offset="0.7754" stop-color="#FFA600"/>
<stop offset="1" stop-color="#FF9C00"/>
</linearGradient>
<linearGradient id="paint2_linear_614_818" x1="24.2281" y1="23.5387" x2="2.90132" y2="44.8654" gradientUnits="userSpaceOnUse">
<stop stop-color="#FF3743"/>
<stop offset="1" stop-color="#E30864"/>
</linearGradient>
<linearGradient id="paint3_linear_614_818" x1="7.80109" y1="2.81018" x2="17.3244" y2="12.3335" gradientUnits="userSpaceOnUse">
<stop stop-color="#00A06F"/>
<stop offset="0.0685" stop-color="#00A86E"/>
<stop offset="0.4762" stop-color="#00CF6E"/>
<stop offset="0.8009" stop-color="#00E76D"/>
<stop offset="1" stop-color="#00EF6D"/>
</linearGradient>
</defs>
</svg>
