<svg width="64" height="64" viewBox="0 0 64 64" fill="none" xmlns="http://www.w3.org/2000/svg">
<g clip-path="url(#clip0_455_1926)">
<path d="M32 35.4393C32 30.1814 27.7376 25.919 22.4797 25.919L21.2297 34.7399L22.4797 55.8785H32V35.4393Z" fill="#24B3B3"/>
<path d="M12.9595 35.4393V55.8785H22.4797V25.919C17.2218 25.919 12.9595 30.1814 12.9595 35.4393Z" fill="#2EE6A8"/>
<path d="M51.0405 35.4393C51.0405 30.1814 46.7781 25.919 41.5203 25.919L40.2703 34.7399L41.5203 55.8785H51.0405V35.4393Z" fill="#E62E6B"/>
<path d="M32 35.4393V55.8785H41.5202V25.919C36.2624 25.919 32 30.1814 32 35.4393Z" fill="#FF6666"/>
<path d="M30.125 0H33.875V5.625H30.125V0Z" fill="#FFB655"/>
<path d="M30.125 0H33.875V5.625H30.125V0Z" fill="#FFB655"/>
<path d="M20.3269 2.14606L23.8932 0.987307L25.6313 6.33668L22.065 7.49543L20.3269 2.14606Z" fill="#FFDA44"/>
<path d="M20.3269 2.14606L23.8932 0.987307L25.6313 6.33668L22.065 7.49543L20.3269 2.14606Z" fill="#FFDA44"/>
<path d="M11.675 7.21082L14.7088 5.00582L18.0163 9.55644L14.9825 11.7614L11.675 7.21082Z" fill="#FFDA44"/>
<path d="M11.675 7.21082L14.7088 5.00582L18.0163 9.55644L14.9825 11.7614L11.675 7.21082Z" fill="#FFDA44"/>
<path d="M5.0105 14.7104L7.2155 11.6766L11.7661 14.9841L9.56112 18.0179L5.0105 14.7104Z" fill="#FFDA44"/>
<path d="M5.0105 14.7104L7.2155 11.6766L11.7661 14.9841L9.56112 18.0179L5.0105 14.7104Z" fill="#FFDA44"/>
<path d="M0.985596 23.8947L2.14435 20.3285L7.49372 22.0666L6.33497 25.6328L0.985596 23.8947Z" fill="#FFDA44"/>
<path d="M0.985596 23.8947L2.14435 20.3285L7.49372 22.0666L6.33497 25.6328L0.985596 23.8947Z" fill="#FFDA44"/>
<path d="M0 30.125H5.625V33.875H0V30.125Z" fill="#FFDA44"/>
<path d="M0 30.125H5.625V33.875H0V30.125Z" fill="#FFDA44"/>
<path d="M58.375 30.125H64V33.875H58.375V30.125Z" fill="#FFB655"/>
<path d="M58.375 30.125H64V33.875H58.375V30.125Z" fill="#FFB655"/>
<path d="M56.5012 22.0665L61.8506 20.3284L63.0093 23.8947L57.66 25.6328L56.5012 22.0665Z" fill="#FFB655"/>
<path d="M56.5012 22.0665L61.8506 20.3284L63.0093 23.8947L57.66 25.6328L56.5012 22.0665Z" fill="#FFB655"/>
<path d="M52.2378 14.9691L56.7884 11.6616L58.9934 14.6953L54.4428 18.0028L52.2378 14.9691Z" fill="#FFB655"/>
<path d="M52.2378 14.9691L56.7884 11.6616L58.9934 14.6953L54.4428 18.0028L52.2378 14.9691Z" fill="#FFB655"/>
<path d="M45.9956 9.56207L49.3031 5.01145L52.3369 7.21645L49.0294 11.7671L45.9956 9.56207Z" fill="#FFB655"/>
<path d="M45.9956 9.56207L49.3031 5.01145L52.3369 7.21645L49.0294 11.7671L45.9956 9.56207Z" fill="#FFB655"/>
<path d="M38.3662 6.33862L40.1043 0.989248L43.6706 2.148L41.9325 7.49737L38.3662 6.33862Z" fill="#FFB655"/>
<path d="M38.3662 6.33862L40.1043 0.989248L43.6706 2.148L41.9325 7.49737L38.3662 6.33862Z" fill="#FFB655"/>
<path d="M27.9392 20.4595C27.9392 17.4442 25.495 15 22.4797 15L21.2297 20.4595L22.4797 25.919C25.4949 25.919 27.9392 23.4746 27.9392 20.4595Z" fill="#DBAD5C"/>
<path d="M17.0203 20.4595C17.0203 23.4747 19.4645 25.919 22.4798 25.919V15C19.4645 15 17.0203 17.4442 17.0203 20.4595Z" fill="#E7C994"/>
<path d="M46.9798 20.4595C46.9798 17.4442 44.5355 15 41.5203 15L40.2703 20.4595L41.5203 25.919C44.5355 25.919 46.9798 23.4746 46.9798 20.4595Z" fill="#8C574D"/>
<path d="M36.0608 20.4595C36.0608 23.4747 38.505 25.919 41.5203 25.919V15C38.5052 15 36.0608 17.4442 36.0608 20.4595Z" fill="#A6756B"/>
<path d="M56.5 40.8988C56.5 37.8835 54.0558 35.4393 51.0405 35.4393L49.7905 40.8988L51.0405 46.3583C54.0558 46.3581 56.5 43.9139 56.5 40.8988Z" fill="#DBAD5C"/>
<path d="M45.5811 40.8988C45.5811 43.914 48.0253 46.3583 51.0406 46.3583V35.4393C48.0254 35.4393 45.5811 37.8835 45.5811 40.8988Z" fill="#E7C994"/>
<path d="M60.5608 55.8785C60.5608 50.6207 56.2984 46.3583 51.0405 46.3583L49.7905 55.1792L51.0405 64H60.5608V55.8785Z" fill="#6A4DFF"/>
<path d="M41.5203 55.8785L40.2703 60.25L41.5203 64H51.0405V46.3582C45.7826 46.3582 41.5203 50.6205 41.5203 55.8785Z" fill="#6680FF"/>
<path d="M37.4595 40.8988C37.4595 37.8835 35.0153 35.4393 32 35.4393L30.75 40.8988L32 46.3583C35.0153 46.3581 37.4595 43.9139 37.4595 40.8988Z" fill="#FFCDBE"/>
<path d="M26.5405 40.8988C26.5405 43.914 28.9848 46.3583 32 46.3583V35.4393C28.9848 35.4393 26.5405 37.8835 26.5405 40.8988Z" fill="#FFDECF"/>
<path d="M41.5202 55.8785C41.5202 50.6207 37.2579 46.3583 32 46.3583L30.75 55.1792L32 64H41.5202V55.8785Z" fill="#404A80"/>
<path d="M22.4797 55.8785L21.2297 60.25L22.4797 64H32V46.3582C26.7421 46.3582 22.4797 50.6205 22.4797 55.8785Z" fill="#5C6699"/>
<path d="M18.419 40.8988C18.419 37.8835 15.9747 35.4393 12.9595 35.4393L11.7095 40.8988L12.9595 46.3583C15.9746 46.3581 18.419 43.9139 18.419 40.8988Z" fill="#8C574D"/>
<path d="M7.5 40.8988C7.5 43.914 9.94425 46.3583 12.9595 46.3583V35.4393C9.94425 35.4393 7.5 37.8835 7.5 40.8988Z" fill="#A6756B"/>
<path d="M22.4797 55.8785C22.4797 50.6207 18.2173 46.3583 12.9595 46.3583L11.7095 55.1792L12.9595 64H22.4797V55.8785Z" fill="#FFB655"/>
<path d="M3.43921 55.8785V64H12.9595V46.3582C7.70158 46.3582 3.43921 50.6205 3.43921 55.8785Z" fill="#FFDA44"/>
</g>
<defs>
<clipPath id="clip0_455_1926">
<rect width="64" height="64" fill="white"/>
</clipPath>
</defs>
</svg>
