<svg width="87" height="86" viewBox="0 0 87 86" fill="none" xmlns="http://www.w3.org/2000/svg">
<g clip-path="url(#clip0_464_2594)">
<path d="M81 77C72.7275 77 66 70.2725 66 62C66 53.7275 72.7275 46.75 81 46.75C89.2725 46.75 96 53.7275 96 62C96 70.2725 89.2725 77 81 77Z" fill="#F6A96C"/>
<path d="M81 77C75.291 77 70.0469 78.8701 65.7393 81.9648L60.2324 94.4043L69.75 107H107.5V103.25C107.5 88.7529 95.4971 77 81 77Z" fill="#32DDF9"/>
<path d="M-1.5 10.6787L-13.1162 16.75L-10.9111 3.43262L-20.5 -5.6748L-7.20508 -7.5498L-1.5 -21L4.34473 -7.5498L17.25 -5.6748L7.91113 3.43262L10.1162 16.75L-1.5 10.6787Z" fill="#FFDA2D"/>
<path d="M52.875 3.39941L55.125 16.75L43.5 10.6748L31.875 16.75L34.125 3.39941L24.75 -5.67481L37.7998 -7.54981L43.5 -21L49.3506 -7.54981L62.25 -5.67481L52.875 3.39941Z" fill="#FFDA2D"/>
<path d="M88.5 10.6787L76.8838 16.75L79.0889 3.43262L69.75 -5.67481L82.7949 -7.54981L88.5 -21L94.3447 -7.54981L107.5 -5.67481L97.9111 3.43262L100.116 16.75L88.5 10.6787Z" fill="#FDBF00"/>
<path d="M6 77C-2.27246 77 -9 70.2725 -9 62C-9 53.7275 -2.27246 46.75 6 46.75C14.2725 46.75 21 53.7275 21 62C21 70.2725 14.2725 77 6 77Z" fill="#FFBD86"/>
<path d="M6 77C-8.49707 77 -20.5 88.7529 -20.5 103.25V107H17.25L26.5527 95.75L21.2607 81.9658C16.9531 78.8701 11.709 77 6 77Z" fill="#84ECF7"/>
<path d="M55.125 16.75L43.5 10.6748V-21L49.3506 -7.54981L62.25 -5.67481L52.875 3.39941L55.125 16.75Z" fill="#FDBF00"/>
<path d="M43.5 39.25C35.25 39.25 28.5 46 28.5 54.25C28.5 62.5 35.25 69.5 43.5 69.5C51.75 69.5 58.5 62.5 58.5 54.25C58.5 46 51.75 39.25 43.5 39.25Z" fill="#FED2A4"/>
<path d="M69.75 95.75V107H17.25V95.75C17.25 90.6504 18.75 86 21.2256 81.9502C25.875 74.5244 34.125 69.5 43.5 69.5C52.875 69.5 61.125 74.5244 65.7744 81.9502C68.25 86 69.75 90.6504 69.75 95.75Z" fill="#FF637B"/>
<path d="M43.5 69.5V39.25C51.75 39.25 58.5 46 58.5 54.25C58.5 62.5 51.75 69.5 43.5 69.5Z" fill="#F6A96C"/>
<path d="M69.75 95.75V107H43.5V69.5C52.875 69.5 61.125 74.5244 65.7744 81.9502C68.25 86 69.75 90.6504 69.75 95.75Z" fill="#E63950"/>
</g>
<defs>
<clipPath id="clip0_464_2594">
<rect width="128" height="128" fill="white" transform="translate(-20.5 -21)"/>
</clipPath>
</defs>
</svg>
