<svg width="86" height="74" viewBox="0 0 86 74" fill="none" xmlns="http://www.w3.org/2000/svg">
<path d="M79.261 25.9549H65.9191C64.9916 25.9549 64.2398 26.7069 64.2398 27.6342C64.2398 28.5617 64.9916 29.3135 65.9191 29.3135H79.261C81.1244 29.3135 82.6403 30.8294 82.6403 32.6928V59.4521C82.6403 61.3153 81.1244 62.8311 79.261 62.8311H77.7223C77.0722 62.8311 76.4804 63.2062 76.2032 63.7943L73.7653 68.9662L67.0056 63.2299C66.702 62.9725 66.3169 62.8311 65.9189 62.8311H25.4511C23.5877 62.8311 22.072 61.3153 22.072 59.4521V39.4375C22.072 38.5102 21.32 37.7582 20.3927 37.7582C19.4654 37.7582 18.7134 38.5102 18.7134 39.4375V59.4521C18.7134 63.1673 21.736 66.1897 25.4511 66.1897H65.3026L73.2632 72.9452C74.1054 73.6594 75.3976 73.3799 75.869 72.3807L78.7873 66.1897H79.261C82.9763 66.1897 85.9989 63.1673 85.9989 59.4521V32.6928C85.9989 28.9775 82.9763 25.9549 79.261 25.9549Z" fill="#020288"/>
<path d="M28.8214 49.3762H76.0338C76.9611 49.3762 77.7131 48.6243 77.7131 47.6969C77.7131 46.7695 76.9611 46.0176 76.0338 46.0176H28.8214C27.8941 46.0176 27.1421 46.7695 27.1421 47.6969C27.1421 48.6243 27.8941 49.3762 28.8214 49.3762Z" fill="#020288"/>
<path d="M28.8214 57.773H76.0338C76.9611 57.773 77.7131 57.021 77.7131 56.0937C77.7131 55.1662 76.9611 54.4144 76.0338 54.4144H28.8214C27.8941 54.4144 27.1421 55.1662 27.1421 56.0937C27.1421 57.021 27.8941 57.773 28.8214 57.773Z" fill="#020288"/>
<path d="M11.3813 49.1732L7.52844 41.0003H6.73917C3.02404 41.0003 0.00146484 37.9778 0.00146484 34.2625V7.3936C0.00146484 3.67848 3.02404 0.656067 6.73917 0.656067H60.6243C64.3396 0.656067 67.362 3.67848 67.362 7.3936V34.2625C67.362 37.9778 64.3394 41.0003 60.6243 41.0003H21.0129L11.3813 49.1732Z" fill="#E2C4FF"/>
<path d="M17.0225 10.7864H10.2779C9.35046 10.7864 8.59863 11.5384 8.59863 12.4657V29.3273C8.59863 30.2548 9.35046 31.0066 10.2779 31.0066C11.2054 31.0066 11.9572 30.2548 11.9572 29.3273V22.4163H16.487C17.4145 22.4163 18.1663 21.6645 18.1663 20.737C18.1663 19.8097 17.4145 19.0577 16.487 19.0577H11.9572V14.145H17.0225C17.9498 14.145 18.7018 13.3931 18.7018 12.4657C18.7018 11.5384 17.95 10.7864 17.0225 10.7864Z" fill="#020288"/>
<path d="M58.681 28.0742L57.289 26.6768C58.4323 25.0373 59.1057 23.045 59.1057 20.8967C59.1057 15.3219 54.5848 10.7864 49.0279 10.7864C43.471 10.7864 38.9502 15.3219 38.9502 20.8967C38.9502 26.4713 43.471 31.0066 49.0279 31.0066C51.2351 31.0066 53.2773 30.2892 54.9393 29.0772L56.3014 30.4447C56.9552 31.1006 58.0178 31.1048 58.6765 30.4492C59.3332 29.7946 59.3354 28.7313 58.681 28.0742ZM49.0279 27.648C45.3232 27.648 42.3088 24.6194 42.3088 20.8967C42.3088 17.1738 45.323 14.145 49.0279 14.145C52.7327 14.145 55.7471 17.1738 55.7471 20.8967C55.7471 22.1127 55.4238 23.2534 54.8616 24.24L53.3074 22.6798C52.653 22.0228 51.5898 22.0208 50.9324 22.6752C50.2754 23.3297 50.2732 24.393 50.9278 25.0503L52.5284 26.657C51.5084 27.2853 50.3095 27.648 49.0279 27.648Z" fill="#020288"/>
<path d="M30.2756 11.808C30.0205 11.1704 29.403 10.7524 28.7163 10.7524C28.0297 10.7524 27.412 11.1704 27.1571 11.808C26.3334 13.8675 21.1752 26.7627 20.4399 28.601C20.0955 29.4622 20.5143 30.4394 21.3754 30.784C22.2362 31.1284 23.2138 30.7097 23.5584 29.8484L25.1512 25.8661H32.2813L33.8741 29.8484C34.1368 30.505 34.7674 30.9045 35.4339 30.9045C36.6139 30.9045 37.4353 29.7077 36.9926 28.601C36.1896 26.5931 30.8679 13.2886 30.2756 11.808ZM26.4946 22.5075L28.7163 16.9534L30.938 22.5075H26.4946Z" fill="#020288"/>
</svg>
