<svg width="86" height="86" viewBox="0 0 86 86" fill="none" xmlns="http://www.w3.org/2000/svg">
<g clip-path="url(#clip0_464_2607)">
<path d="M68.1953 65.8438C62.6373 65.8438 58.1172 61.3237 58.1172 55.7656C58.1172 50.2076 62.6373 45.5195 68.1953 45.5195C73.7534 45.5195 78.2734 50.2076 78.2734 55.7656C78.2734 61.3237 73.7534 65.8438 68.1953 65.8438Z" fill="#F6A96C"/>
<path d="M68.1954 65.8438C64.3597 65.8438 60.8363 67.1002 57.9421 69.1795L54.2422 77.5373L60.6368 86H86.0001V83.4805C86.0001 73.7402 77.9356 65.8438 68.1954 65.8438Z" fill="#32DDF9"/>
<path d="M12.7656 21.2841L4.96098 25.3633L6.44252 16.4157L0 10.2966L8.93253 9.03685L12.7656 0L16.6926 9.03685L25.3633 10.2966L19.0887 16.4157L20.5703 25.3633L12.7656 21.2841Z" fill="#FFDA2D"/>
<path d="M49.2988 16.3934L50.8105 25.3633L43 21.2815L35.1895 25.3633L36.7012 16.3934L30.4023 10.2966L39.1702 9.03685L43 0L46.9309 9.03685L55.5977 10.2966L49.2988 16.3934Z" fill="#FFDA2D"/>
<path d="M73.2344 21.2841L65.4297 25.3633L66.9113 16.4157L60.6367 10.2966L69.4013 9.03685L73.2344 0L77.1613 9.03685L86 10.2966L79.5575 16.4157L81.039 25.3633L73.2344 21.2841Z" fill="#FDBF00"/>
<path d="M17.8047 65.8438C12.2466 65.8438 7.72656 61.3237 7.72656 55.7656C7.72656 50.2076 12.2466 45.5195 17.8047 45.5195C23.3627 45.5195 27.8828 50.2076 27.8828 55.7656C27.8828 61.3237 23.3627 65.8438 17.8047 65.8438Z" fill="#FFBD86"/>
<path d="M17.8047 65.8438C8.06447 65.8438 0 73.7402 0 83.4805V86H25.3633L31.6136 78.4414L28.058 69.1802C25.1638 67.1002 21.6404 65.8438 17.8047 65.8438Z" fill="#84ECF7"/>
<path d="M50.8105 25.3633L43 21.2815V0L46.9309 9.03685L55.5977 10.2966L49.2988 16.3934L50.8105 25.3633Z" fill="#FDBF00"/>
<path d="M43 40.4805C37.457 40.4805 32.9219 45.0156 32.9219 50.5586C32.9219 56.1016 37.457 60.8047 43 60.8047C48.543 60.8047 53.0781 56.1016 53.0781 50.5586C53.0781 45.0156 48.543 40.4805 43 40.4805Z" fill="#FED2A4"/>
<path d="M60.6367 78.4414V86H25.3633V78.4414C25.3633 75.0151 26.3711 71.8906 28.0344 69.1697C31.1582 64.1805 36.7012 60.8047 43 60.8047C49.2988 60.8047 54.8418 64.1805 57.9656 69.1697C59.6289 71.8906 60.6367 75.0151 60.6367 78.4414Z" fill="#FF637B"/>
<path d="M43 60.8047V40.4805C48.543 40.4805 53.0781 45.0156 53.0781 50.5586C53.0781 56.1016 48.543 60.8047 43 60.8047Z" fill="#F6A96C"/>
<path d="M60.6367 78.4414V86H43V60.8047C49.2988 60.8047 54.8418 64.1805 57.9656 69.1697C59.6289 71.8906 60.6367 75.0151 60.6367 78.4414Z" fill="#E63950"/>
</g>
<defs>
<clipPath id="clip0_464_2607">
<rect width="86" height="86" fill="white"/>
</clipPath>
</defs>
</svg>
