<svg width="86" height="80" viewBox="0 0 86 80" fill="none" xmlns="http://www.w3.org/2000/svg">
<path d="M23.0645 17.9788C19.0686 17.9788 15.8288 21.2175 15.8274 25.2135L15.8179 54.7839C15.8179 58.7809 19.058 62.021 23.055 62.021H77.0836C81.0806 62.021 84.3207 58.7809 84.3207 54.7839V25.2159C84.3207 21.2189 81.0806 17.9788 77.0836 17.9788H23.0645Z" fill="#FDCB50"/>
<path d="M33.7208 39.9998C33.7208 31.453 37.0923 23.6942 42.5766 17.9788H23.0645C19.0686 17.9788 15.8288 21.2175 15.8274 25.2135L15.8179 54.7839C15.8179 58.7809 19.058 62.021 23.055 62.021H42.5766C37.0923 56.3054 33.7208 48.5465 33.7208 39.9998Z" fill="#FD8F01"/>
<path d="M43.1377 42.4961C47.079 46.0342 53.0529 46.0342 56.9941 42.4961L82.0747 19.9813C80.7758 18.7415 79.0177 17.9788 77.0804 17.9788H23.0611C21.1214 17.9788 19.3614 18.7434 18.062 19.9857L43.1377 42.4961Z" fill="#FDCB50"/>
<path d="M42.5757 17.9788H23.0611C21.1216 17.9788 19.3614 18.7434 18.062 19.9856L34.1994 34.4723C35.3111 28.1293 38.3012 22.4333 42.5757 17.9788Z" fill="#FD8F01"/>
<path d="M17.9614 52.0896V27.9095C17.9614 25.7653 19.6997 24.0269 21.844 24.0269H29.3765C32.0753 24.0269 34.2629 21.8391 34.2629 19.1406V6.78277C34.2629 3.79914 31.6122 1.51208 28.6608 1.94913C28.6608 1.94913 25.2853 2.51502 20.9223 3.24669C9.81641 5.10879 1.68018 14.7218 1.68018 25.9828V54.0164C1.68018 65.2774 9.81557 74.8902 20.9213 76.7525L28.6607 78.0502C31.6122 78.4873 34.2627 76.2002 34.2627 73.2166V60.8588C34.2627 58.16 32.075 55.9724 29.3764 55.9724H21.8438C19.6997 55.9722 17.9614 54.2339 17.9614 52.0896Z" fill="#BC9AF4"/>
<path d="M29.3746 55.9725H22.5649V77.0285L28.6588 78.0503C31.6104 78.4873 34.2611 76.2003 34.2611 73.2167V60.8589C34.2609 58.1603 32.0733 55.9725 29.3746 55.9725Z" fill="#6864F7"/>
<path d="M28.6588 1.94923C28.6588 1.94923 26.1029 2.37771 22.5649 2.97098V24.027H29.3746C32.0733 24.027 34.2609 21.8392 34.2609 19.1407V6.78286C34.2609 3.79923 31.6102 1.51217 28.6588 1.94923Z" fill="#6864F7"/>
<path d="M85.9903 25.2131C85.9894 22.7427 84.9781 20.5046 83.3488 18.8885C83.3406 18.879 83.3335 18.8687 83.3251 18.8593C83.2566 18.7829 83.1818 18.7157 83.1037 18.6549C81.5149 17.1936 79.3968 16.2993 77.0736 16.2993H35.9421V6.78318C35.9421 4.8722 35.1124 3.06016 33.6653 1.81181C32.2184 0.563301 30.3037 0.00782841 28.4141 0.287832C28.4035 0.289344 28.3929 0.291024 28.3825 0.292872L20.644 1.59043C14.8812 2.55659 9.62864 5.54509 5.85371 10.0055C2.07895 14.4657 0 20.1401 0 25.9832V54.0168C0 59.86 2.07878 65.5343 5.85354 69.9945C9.6283 74.4548 14.8807 77.4433 20.6434 78.4094L28.3827 79.7072C28.3931 79.7088 28.4037 79.7107 28.4143 79.7122C28.7358 79.7597 29.0576 79.7832 29.3781 79.7832C30.9419 79.7832 32.4647 79.2244 33.6653 78.1882C35.1122 76.9399 35.9421 75.1278 35.9421 73.2168V63.7007H77.1669C82.0374 63.7007 86 59.7382 86 54.8669L85.9903 25.2131ZM79.3666 20.1558L55.8725 41.2463C52.5626 44.2179 47.5704 44.2177 44.2603 41.2463L26.9504 25.707H29.3762C32.8224 25.707 35.6549 23.0379 35.9199 19.6587H77.0736C77.8908 19.6587 78.6668 19.8374 79.3666 20.1558ZM27.8106 54.293H21.8435C20.6289 54.293 19.6406 53.3046 19.6406 52.0901V27.91C19.6406 26.6952 20.6289 25.707 21.8435 25.707H21.9214L40.2708 42.1794L27.8106 54.293ZM32.5827 73.2168C32.5827 74.1501 32.1774 75.0351 31.4708 75.6447C30.768 76.2512 29.8393 76.5228 28.9209 76.3911L21.1985 75.0964C16.2187 74.2614 11.6795 71.6789 8.41759 67.8244C5.1558 63.9698 3.35938 59.0663 3.35938 54.0168V25.9832C3.35938 20.9337 5.15597 16.0302 8.41809 12.1757C11.6804 8.32111 16.2194 5.73859 21.1995 4.90361L28.9205 3.60908C29.8391 3.47706 30.768 3.74883 31.471 4.35536C32.1776 4.96509 32.5829 5.84995 32.5829 6.78318V19.141C32.5829 20.9092 31.1444 22.3477 29.3762 22.3477H21.8435C18.7764 22.3477 16.2812 24.8428 16.2812 27.91V52.0901C16.2812 55.1572 18.7764 57.6524 21.8435 57.6524H29.3762C31.1443 57.6524 32.5829 59.0908 32.5829 60.859L32.5827 73.2168ZM32.0447 54.8621L42.8089 44.3973C44.9562 46.022 47.5103 46.836 50.0664 46.836C52.6228 46.836 55.1789 46.0209 57.3266 44.3949L73.7294 60.3414H35.9199C35.728 57.8937 34.1889 55.82 32.0447 54.8621ZM78.4023 60.1991L59.8644 42.1771L81.873 22.4199C82.3536 23.2414 82.6305 24.1958 82.6309 25.2142L82.6406 54.8676C82.6406 57.461 80.8272 59.6372 78.4023 60.1991Z" fill="#052A75"/>
</svg>
