<svg width="64" height="64" viewBox="0 0 64 64" fill="none" xmlns="http://www.w3.org/2000/svg">
<g clip-path="url(#clip0_464_2620)">
<path d="M48.9518 52.7499H15.0469V35.0976C15.0469 25.735 22.6368 18.1451 31.9993 18.1451C41.3619 18.1451 48.9517 25.735 48.9517 35.0976V52.7499H48.9518Z" fill="url(#paint0_linear_464_2620)"/>
<path d="M39.7597 20.0254C36.6095 18.4009 32.9157 18.4009 29.7654 20.0254C24.3063 22.8405 20.5732 28.5322 20.5732 35.0976V52.7499H48.9518V35.0976C48.9518 28.5321 45.2188 22.8405 39.7597 20.0254Z" fill="url(#paint1_linear_464_2620)"/>
<path d="M31.9996 18.1451C30.8195 18.1451 29.6678 18.2664 28.5557 18.4959C36.2668 20.0872 42.0642 26.9151 42.0642 35.0976V52.7499H48.952V35.0976C48.9521 25.735 41.3622 18.1451 31.9996 18.1451Z" fill="url(#paint2_linear_464_2620)"/>
<path d="M31.9997 36.5094C38.5384 36.5094 43.8392 32.6785 43.8392 27.9528C43.8392 23.2272 38.5384 19.3963 31.9997 19.3963C25.4609 19.3963 20.1602 23.2272 20.1602 27.9528C20.1602 32.6785 25.4609 36.5094 31.9997 36.5094Z" fill="url(#paint3_linear_464_2620)"/>
<path d="M31.2135 45.8721L23.0813 47.5388C20.6308 48.0411 18.3359 46.1689 18.3359 43.6673V38.9133C18.3359 36.4118 20.6308 34.5396 23.0813 35.0418L31.2135 36.7085C32.1243 36.8951 32.7781 37.6966 32.7781 38.6264V43.9542C32.7781 44.884 32.1242 45.6855 31.2135 45.8721Z" fill="url(#paint4_linear_464_2620)"/>
<path d="M32.7863 36.7087L40.9184 35.0419C43.369 34.5397 45.6638 36.4119 45.6638 38.9134V43.6675C45.6638 46.169 43.369 48.0412 40.9184 47.539L32.7863 45.8722C31.8755 45.6856 31.2217 44.8841 31.2217 43.9543V38.6265C31.2217 37.6968 31.8756 36.8953 32.7863 36.7087Z" fill="url(#paint5_linear_464_2620)"/>
<path d="M15.0469 37.6471H48.9517V52.75H15.0469V37.6471Z" fill="url(#paint6_linear_464_2620)"/>
<path d="M50.7869 57.3794H13.4277V53.8026C13.4277 51.7346 15.1042 50.0583 17.172 50.0583H47.0427C49.1106 50.0583 50.7869 51.7347 50.7869 53.8026V57.3794Z" fill="url(#paint7_linear_464_2620)"/>
<path d="M53.8438 61.0399H10.1553C9.12255 61.0399 8.28516 60.2027 8.28516 59.1698V57.4631C8.28516 55.3951 9.96158 53.7188 12.0294 53.7188H51.9695C54.0375 53.7188 55.7138 55.3953 55.7138 57.4631V59.1698C55.7139 60.2027 54.8767 61.0399 53.8438 61.0399Z" fill="url(#paint8_linear_464_2620)"/>
<path d="M32.0004 13.1776C30.9214 13.1776 30.0469 12.3029 30.0469 11.2241V4.91357C30.0469 3.83461 30.9215 2.96007 32.0004 2.96007C33.0793 2.96007 33.9539 3.83473 33.9539 4.91357V11.224C33.9539 12.3029 33.0793 13.1776 32.0004 13.1776Z" fill="url(#paint9_linear_464_2620)"/>
<path d="M53.7822 34.9601C53.7822 33.8811 54.6569 33.0066 55.7357 33.0066H62.0461C63.1251 33.0066 63.9996 33.8812 63.9996 34.9601C63.9996 36.039 63.125 36.9136 62.0461 36.9136H55.7357C54.6569 36.9136 53.7822 36.0389 53.7822 34.9601Z" fill="url(#paint10_linear_464_2620)"/>
<path d="M0 34.9601C0 33.8811 0.874667 33.0066 1.95351 33.0066H8.26391C9.34287 33.0066 10.2174 33.8812 10.2174 34.9601C10.2174 36.039 9.34274 36.9136 8.26391 36.9136H1.95351C0.874667 36.9136 0 36.0389 0 34.9601Z" fill="url(#paint11_linear_464_2620)"/>
<path d="M47.4022 19.5575C46.6394 18.7947 46.6394 17.5577 47.4022 16.7949L51.8644 12.3327C52.6273 11.5698 53.8642 11.5698 54.6271 12.3327C55.3899 13.0955 55.3899 14.3325 54.6271 15.0954L50.1649 19.5575C49.402 20.3204 48.1651 20.3204 47.4022 19.5575Z" fill="url(#paint12_linear_464_2620)"/>
<path d="M9.37302 12.3325C10.1359 11.5697 11.3728 11.5697 12.1357 12.3325L16.5979 16.7947C17.3607 17.5576 17.3607 18.7945 16.5979 19.5574C15.835 20.3203 14.5981 20.3203 13.8352 19.5574L9.37302 15.0952C8.61004 14.3325 8.61004 13.0955 9.37302 12.3325Z" fill="url(#paint13_linear_464_2620)"/>
<g clip-path="url(#clip1_464_2620)">
<path d="M-2 10.6787L-13.6162 16.75L-11.4111 3.43262L-21 -5.6748L-7.70508 -7.5498L-2 -21L3.84473 -7.5498L16.75 -5.6748L7.41113 3.43262L9.61621 16.75L-2 10.6787Z" fill="#FFDA2D"/>
<path d="M52.375 3.39941L54.625 16.75L43 10.6748L31.375 16.75L33.625 3.39941L24.25 -5.6748L37.2998 -7.5498L43 -21L48.8506 -7.5498L61.75 -5.6748L52.375 3.39941Z" fill="#FFDA2D"/>
<path d="M5.5 77C-2.77246 77 -9.5 70.2725 -9.5 62C-9.5 53.7275 -2.77246 46.75 5.5 46.75C13.7725 46.75 20.5 53.7275 20.5 62C20.5 70.2725 13.7725 77 5.5 77Z" fill="#FFBD86"/>
<path d="M54.625 16.75L43 10.6748V-21L48.8506 -7.5498L61.75 -5.6748L52.375 3.39941L54.625 16.75Z" fill="#FDBF00"/>
<path d="M43 39.25C34.75 39.25 28 46 28 54.25C28 62.5 34.75 69.5 43 69.5C51.25 69.5 58 62.5 58 54.25C58 46 51.25 39.25 43 39.25Z" fill="#FED2A4"/>
<path d="M43 69.5V39.25C51.25 39.25 58 46 58 54.25C58 62.5 51.25 69.5 43 69.5Z" fill="#F6A96C"/>
</g>
</g>
<defs>
<linearGradient id="paint0_linear_464_2620" x1="29.5006" y1="26.0419" x2="32.3451" y2="45.6943" gradientUnits="userSpaceOnUse">
<stop stop-color="#FF7044"/>
<stop offset="0.2346" stop-color="#FE653C"/>
<stop offset="0.6509" stop-color="#FB4628"/>
<stop offset="1" stop-color="#F82814"/>
</linearGradient>
<linearGradient id="paint1_linear_464_2620" x1="31.2548" y1="32.7339" x2="18.4548" y2="-2.65436" gradientUnits="userSpaceOnUse">
<stop stop-color="#FFD945" stop-opacity="0"/>
<stop offset="1" stop-color="#FBED21"/>
</linearGradient>
<linearGradient id="paint2_linear_464_2620" x1="38.7539" y1="18.755" x2="38.7539" y2="55.6946" gradientUnits="userSpaceOnUse">
<stop stop-color="#F82814" stop-opacity="0"/>
<stop offset="1" stop-color="#C0272D"/>
</linearGradient>
<linearGradient id="paint3_linear_464_2620" x1="31.9997" y1="28.6334" x2="31.9997" y2="-1.08197" gradientUnits="userSpaceOnUse">
<stop stop-color="white" stop-opacity="0"/>
<stop offset="1" stop-color="white"/>
</linearGradient>
<linearGradient id="paint4_linear_464_2620" x1="27.894" y1="43.2134" x2="2.79599" y2="26.816" gradientUnits="userSpaceOnUse">
<stop stop-color="#FFD945" stop-opacity="0"/>
<stop offset="1" stop-color="#FBED21"/>
</linearGradient>
<linearGradient id="paint5_linear_464_2620" x1="36.1058" y1="39.3673" x2="61.2038" y2="55.7647" gradientUnits="userSpaceOnUse">
<stop stop-color="#FFD945" stop-opacity="0"/>
<stop offset="1" stop-color="#FBED21"/>
</linearGradient>
<linearGradient id="paint6_linear_464_2620" x1="31.9993" y1="43.9216" x2="31.9993" y2="51.0329" gradientUnits="userSpaceOnUse">
<stop stop-color="#F82814" stop-opacity="0"/>
<stop offset="0.1249" stop-color="#ED2819" stop-opacity="0.125"/>
<stop offset="0.4524" stop-color="#D42724" stop-opacity="0.452"/>
<stop offset="0.7531" stop-color="#C5272B" stop-opacity="0.753"/>
<stop offset="1" stop-color="#C0272D"/>
</linearGradient>
<linearGradient id="paint7_linear_464_2620" x1="32.1073" y1="50.5697" x2="32.1073" y2="55.2974" gradientUnits="userSpaceOnUse">
<stop stop-color="#8A7889"/>
<stop offset="1" stop-color="#6E566E"/>
</linearGradient>
<linearGradient id="paint8_linear_464_2620" x1="31.9995" y1="54.2302" x2="31.9995" y2="58.9579" gradientUnits="userSpaceOnUse">
<stop stop-color="#8A7889"/>
<stop offset="1" stop-color="#6E566E"/>
</linearGradient>
<linearGradient id="paint9_linear_464_2620" x1="29.0243" y1="8.06877" x2="34.3769" y2="8.06877" gradientUnits="userSpaceOnUse">
<stop stop-color="#FFD945"/>
<stop offset="0.3043" stop-color="#FFCD3E"/>
<stop offset="0.8558" stop-color="#FFAD2B"/>
<stop offset="1" stop-color="#FFA325"/>
</linearGradient>
<linearGradient id="paint10_linear_464_2620" x1="58.8911" y1="31.9839" x2="58.8911" y2="37.3365" gradientUnits="userSpaceOnUse">
<stop stop-color="#FFD945"/>
<stop offset="0.3043" stop-color="#FFCD3E"/>
<stop offset="0.8558" stop-color="#FFAD2B"/>
<stop offset="1" stop-color="#FFA325"/>
</linearGradient>
<linearGradient id="paint11_linear_464_2620" x1="5.10871" y1="31.9839" x2="5.10871" y2="37.3365" gradientUnits="userSpaceOnUse">
<stop stop-color="#FFD945"/>
<stop offset="0.3043" stop-color="#FFCD3E"/>
<stop offset="0.8558" stop-color="#FFAD2B"/>
<stop offset="1" stop-color="#FFA325"/>
</linearGradient>
<linearGradient id="paint12_linear_464_2620" x1="48.8864" y1="13.8277" x2="52.6706" y2="17.612" gradientUnits="userSpaceOnUse">
<stop stop-color="#FFD945"/>
<stop offset="0.3043" stop-color="#FFCD3E"/>
<stop offset="0.8558" stop-color="#FFAD2B"/>
<stop offset="1" stop-color="#FFA325"/>
</linearGradient>
<linearGradient id="paint13_linear_464_2620" x1="15.0778" y1="13.7917" x2="11.2936" y2="17.5759" gradientUnits="userSpaceOnUse">
<stop stop-color="#FFD945"/>
<stop offset="0.3043" stop-color="#FFCD3E"/>
<stop offset="0.8558" stop-color="#FFAD2B"/>
<stop offset="1" stop-color="#FFA325"/>
</linearGradient>
<clipPath id="clip0_464_2620">
<rect width="64" height="64" fill="white"/>
</clipPath>
<clipPath id="clip1_464_2620">
<rect width="128" height="128" fill="white" transform="translate(-21 -21)"/>
</clipPath>
</defs>
</svg>
