<svg width="86" height="86" viewBox="0 0 86 86" fill="none" xmlns="http://www.w3.org/2000/svg">
<path d="M42.999 86C66.7473 86 85.999 66.7482 85.999 43C85.999 19.2518 66.7473 0 42.999 0C19.2508 0 -0.000976562 19.2518 -0.000976562 43C-0.000976562 66.7482 19.2508 86 42.999 86Z" fill="url(#paint0_linear_464_2562)"/>
<path d="M47.4786 17.6367C35.9449 17.6367 26.5947 26.9867 26.5947 38.5206C26.5947 50.0545 35.9449 59.4045 47.4786 59.4045C59.0124 59.4045 68.3625 50.0544 68.3625 38.5206C68.3625 26.9867 59.0125 17.6367 47.4786 17.6367ZM47.4786 53.4377C39.2539 53.4377 32.5615 46.7455 32.5615 38.5206C32.5615 30.2959 39.2537 23.6035 47.4786 23.6035C55.7034 23.6035 62.3958 30.2959 62.3958 38.5206C62.3958 46.7454 55.7034 53.4377 47.4786 53.4377ZM47.4786 26.5869C40.8971 26.5869 35.5449 31.9404 35.5449 38.5206C35.5449 45.1008 40.8971 50.4543 47.4786 50.4543C54.0601 50.4543 59.4123 45.1008 59.4123 38.5206C59.4123 31.9404 54.0603 26.5869 47.4786 26.5869ZM47.4786 47.4708C46.6547 47.4708 45.9869 46.8028 45.9869 45.9791C45.9869 45.1552 46.6547 44.4874 47.4786 44.4874C48.3023 44.4874 48.9704 45.1552 48.9704 45.9791C48.9704 46.803 48.3025 47.4708 47.4786 47.4708ZM49.7163 37.9205C49.2559 38.187 48.9705 38.6839 48.9705 39.2142V40.0123C48.9705 40.8369 48.3034 41.5041 47.4788 41.5041C46.6542 41.5041 45.9871 40.8369 45.9871 40.0123V39.2142C45.9871 37.622 46.8437 36.1375 48.2217 35.3393C48.685 35.0727 48.9705 34.5774 48.9705 34.0456C48.9705 33.2225 48.3003 32.5539 47.4788 32.5539C46.6571 32.5539 45.9871 33.2225 45.9871 34.0456C45.9871 34.8701 45.3199 35.5373 44.4953 35.5373C43.6708 35.5373 43.0036 34.8701 43.0036 34.0456C43.0036 31.578 45.011 29.5704 47.4788 29.5704C49.9464 29.5704 51.954 31.5778 51.954 34.0456C51.9538 35.6378 51.0972 37.1236 49.7163 37.9205ZM27.7376 51.9151L18.9468 60.7069C17.1987 62.4565 17.1987 65.3031 18.9468 67.0526C20.6879 68.7997 23.5501 68.801 25.2923 67.0526L34.0836 58.2613C31.5906 56.564 29.4347 54.4083 27.7376 51.9151Z" fill="url(#paint1_linear_464_2562)"/>
<defs>
<linearGradient id="paint0_linear_464_2562" x1="42.999" y1="86" x2="42.999" y2="0" gradientUnits="userSpaceOnUse">
<stop stop-color="#FFC2CC"/>
<stop offset="1" stop-color="#FFF2F4"/>
</linearGradient>
<linearGradient id="paint1_linear_464_2562" x1="42.9992" y1="68.3633" x2="42.9992" y2="17.6367" gradientUnits="userSpaceOnUse">
<stop stop-color="#FFA68D"/>
<stop offset="1" stop-color="#FD3A84"/>
</linearGradient>
</defs>
</svg>
