<svg width="87" height="104" viewBox="0 0 87 104" fill="none" xmlns="http://www.w3.org/2000/svg">
<path d="M65.5 66.8H21.5C9.9206 66.8 0.5 76.2206 0.5 87.8V100.2C0.5 101.857 1.8432 103.2 3.5 103.2H16.5L19.5 99.2L22.5 103.2H64.5L67.5 99.2L70.5 103.2H83.5C85.1568 103.2 86.5 101.857 86.5 100.2V87.8C86.5 76.2206 77.0794 66.8 65.5 66.8Z" fill="#FF7038"/>
<path d="M65.5 66.8H43.5V103.2H64.5L67.5 99.2L70.5 103.2H83.5C85.1568 103.2 86.5 101.857 86.5 100.2V87.8C86.5 76.2206 77.0794 66.8 65.5 66.8Z" fill="#FF405C"/>
<path d="M71.5 32.8C69.8432 32.8 68.5 31.4568 68.5 29.8V25.8C68.5 15.3234 59.9766 6.8 49.5 6.8H37.5C27.0234 6.8 18.5 15.3234 18.5 25.8V29.8C18.5 31.4568 17.1568 32.8 15.5 32.8C13.8432 32.8 12.5 31.4568 12.5 29.8V25.8C12.5 12.015 23.715 0.800003 37.5 0.800003H49.5C63.285 0.800003 74.5 12.015 74.5 25.8V29.8C74.5 31.4568 73.1568 32.8 71.5 32.8Z" fill="#00429B"/>
<path d="M49.5 0.800003H43.5V6.8H49.5C59.9766 6.8 68.5 15.3234 68.5 25.8V29.8C68.5 31.4568 69.8432 32.8 71.5 32.8C73.1568 32.8 74.5 31.4568 74.5 29.8V25.8C74.5 12.015 63.285 0.800003 49.5 0.800003Z" fill="#002659"/>
<path d="M71.5 48.8H61.5C59.8432 48.8 58.5 47.4568 58.5 45.8V29.8C58.5 28.1432 59.8432 26.8 61.5 26.8H71.5C75.3598 26.8 78.5 29.9402 78.5 33.8V41.8C78.5 45.6598 75.3598 48.8 71.5 48.8Z" fill="#056EFF"/>
<path d="M25.5 48.8H15.5C11.6402 48.8 8.5 45.6598 8.5 41.8V33.8C8.5 29.9402 11.6402 26.8 15.5 26.8H25.5C27.1568 26.8 28.5 28.1432 28.5 29.8V45.8C28.5 47.4568 27.1568 48.8 25.5 48.8Z" fill="#6BA7FF"/>
<path d="M31.5 57.7648V70.8C31.5 77.4274 36.8726 82.8 43.5 82.8C50.1274 82.8 55.5 77.4274 55.5 70.8V57.7648H31.5Z" fill="#FAB387"/>
<path d="M43.5 82.8C50.1274 82.8 55.5 77.4274 55.5 70.8V57.7648H43.5V82.8Z" fill="#EB9C6F"/>
<path d="M43.5 27.2L22.5 34.8V45.8C22.5 57.3794 31.9206 66.8 43.5 66.8C55.0794 66.8 64.5 57.3794 64.5 45.8V34.8L43.5 27.2Z" fill="#FFCEAA"/>
<path d="M64.5 45.8V34.8L43.5 27.2V66.8C55.0794 66.8 64.5 57.3794 64.5 45.8Z" fill="#FAB387"/>
<path d="M67.355 88.8034C65.7414 88.8794 64.5 90.2694 64.5 91.8848V103.2H70.5V91.8C70.5 90.095 69.0778 88.7222 67.355 88.8034Z" fill="#F90024"/>
<path d="M19.355 88.8034C17.7414 88.8794 16.5 90.2694 16.5 91.8848V103.2H22.5V91.8C22.5 90.095 21.0778 88.7222 19.355 88.8034Z" fill="#FF405C"/>
<path d="M51.5 34.8C48.351 34.8 45.5072 33.4702 43.5 31.3424C41.4928 33.4702 38.649 34.8 35.5 34.8H22.5V25.8C22.5 17.5158 29.2158 10.8 37.5 10.8H49.5C57.7842 10.8 64.5 17.5158 64.5 25.8V34.8H51.5Z" fill="#00429B"/>
<path d="M49.5 10.8H43.5V31.3424C45.5072 33.4702 48.351 34.8 51.5 34.8H64.5V25.8C64.5 17.5158 57.7842 10.8 49.5 10.8Z" fill="#002659"/>
<path d="M39.5 58.8H21.5C16.5374 58.8 12.5 54.7626 12.5 49.8V45.8C12.5 44.1432 13.8432 42.8 15.5 42.8C17.1568 42.8 18.5 44.1432 18.5 45.8V49.8C18.5 51.4542 19.8458 52.8 21.5 52.8H39.5C41.1568 52.8 42.5 54.1432 42.5 55.8C42.5 57.4568 41.1568 58.8 39.5 58.8Z" fill="#00429B"/>
</svg>
